<svg width="130" height="132" viewBox="0 0 130 132" fill="none" xmlns="http://www.w3.org/2000/svg">
<path id="BAKING" fill-rule="evenodd" clip-rule="evenodd" d="M57.1826 0.287687C53.6949 1.0335 52.6803 1.30412 51.1059 1.90887C50.1633 2.27072 49.3219 2.64846 49.2362 2.74811C49.1505 2.84807 48.7239 3.08567 48.288 3.27625C46.6697 3.9847 42.0689 8.81461 42.0689 9.80519C42.0689 9.89425 41.6707 10.5529 41.1839 11.2688C40.4127 12.4033 38.8421 15.3249 37.973 17.2416C37.8178 17.5841 37.5105 18.845 37.2908 20.0433C36.9611 21.8385 36.9649 22.689 37.312 24.8701C38.4401 31.9642 38.9462 32.9856 43.9527 38.2764C45.6429 40.0623 47.0549 42.3671 47.0549 43.3399C47.0549 43.5675 47.2724 44.4862 47.5385 45.3812C48.0832 47.2141 48.9579 47.8123 50.3303 47.291C50.9963 47.0378 51.2318 47.1272 51.913 47.8914C52.3534 48.3853 53.1583 48.8764 53.7014 48.9829C55.0068 49.2385 55.7803 50.8706 55.7803 53.3684C55.7803 54.5751 55.9981 55.6417 56.4241 56.5211L57.0679 57.8498L56.3752 58.7863C55.7055 59.6912 55.6893 59.8836 55.8909 64.5547C56.0832 69.0088 57.0074 74.804 57.9118 77.2249C58.0638 77.6325 58.287 78.6664 58.4076 79.5228C58.7223 81.7543 59.2362 83.4468 59.8878 84.3975C60.6556 85.5173 60.6048 86.0598 59.5746 87.7405C59.0906 88.5302 57.6182 91.3786 56.3022 94.0701C53.5288 99.743 51.4216 102.349 48.4235 103.815C46.7379 104.639 46.5706 104.66 43.2899 104.447C39.1712 104.181 38.1257 104.463 36.0867 106.392C35.2771 107.158 34.2936 108.004 33.9013 108.272C33.5087 108.54 33.1176 108.846 33.0319 108.953C32.9462 109.059 31.614 109.864 30.0715 110.742C27.266 112.337 25.8646 113.398 25.8646 113.928C25.8646 114.083 26.1454 114.406 26.4885 114.646C27.021 115.019 27.065 115.218 26.7879 116.012C26.5732 116.628 26.5661 117.212 26.7667 117.74C27.1684 118.795 29.4243 119.672 31.2363 119.477C32.499 119.342 32.6134 119.4 33.5542 120.658C34.7215 122.218 34.5869 122.339 31.6819 122.345C28.9571 122.35 19.5318 123.773 18.42 124.347C17.1993 124.978 16.5159 125.99 16.5159 127.168C16.5159 128.452 17.1541 129.275 18.6851 129.965C20.3947 130.735 19.9117 131.057 17.5465 130.724C15.0532 130.372 13.0881 129.527 13.0881 128.807C13.0881 128.073 11.9205 128.086 11.0825 128.828C10.2978 129.524 7.69487 130.126 5.47519 130.126C2.33031 130.126 0 130.492 0 130.985C0 131.321 0.188843 131.384 0.701149 131.218C1.08662 131.094 3.2954 130.891 5.60919 130.767C8.60045 130.608 10.1495 130.384 10.9694 129.995C12.018 129.497 12.1853 129.491 12.812 129.929C14.3545 131.009 19.696 131.998 23.9949 132C27.2507 132.001 35.3338 131.407 37.3946 131.015C39.0088 130.708 40.2229 130.424 44.7177 129.304C46.7869 128.789 51.0754 128.882 53.7547 129.5C56.8753 130.221 57.8931 130.227 59.3658 129.535C60.1324 129.175 60.908 128.881 61.0894 128.881C61.4484 128.881 63.0906 129.658 64.8173 130.644C67.0681 131.931 69.5402 131.847 71.0557 130.432L71.9703 129.578L71.4321 128.318C71.0638 127.455 70.4147 126.743 69.3766 126.064C67.7319 124.987 67.8269 124.535 69.6995 124.526C70.2423 124.523 71.3408 124.241 72.1404 123.898C73.7683 123.201 77.2669 123.048 78.7421 123.609C80.002 124.089 83.9166 124.064 85.13 123.569C86.203 123.131 89.7558 120.934 90.0477 120.528C90.1394 120.401 90.9156 119.792 91.7726 119.176C93.3151 118.066 94.3435 117.521 102.524 113.482C104.837 112.339 107.291 111.063 107.977 110.647C108.662 110.23 109.574 109.715 110.002 109.504C110.431 109.292 110.852 109.039 110.937 108.942C111.023 108.845 111.742 108.39 112.535 107.933C113.782 107.213 117.614 104.755 118.588 104.05C118.943 103.792 120.074 103.124 121.065 102.585C122.297 101.914 125.263 99.9301 125.845 99.3855C126.172 99.08 127.028 98.2769 127.747 97.6011C129.627 95.8333 130.04 94.6873 129.997 91.3562C129.932 86.3865 129.164 84.661 127.016 84.661C126.146 84.661 124.052 85.2523 123.714 85.5936C123.258 86.0539 120.758 87.1513 120.178 87.1454C119.527 87.1385 119.53 87.1205 120.286 86.5294C120.714 86.1943 121.242 85.9172 121.459 85.9134C121.675 85.9097 122.096 85.7786 122.394 85.6223C122.691 85.466 123.721 84.9749 124.683 84.5308C126.764 83.5701 127.794 82.6736 128.343 81.3454C128.686 80.5165 128.675 80.2234 128.273 79.4452C128.011 78.9392 127.445 78.2946 127.014 78.0128C126.142 77.4417 124.049 74.4659 123.421 72.9054C123.198 72.3489 122.92 71.8933 122.804 71.8933C122.688 71.8933 122.415 71.4029 122.198 70.8034C121.981 70.2039 121.673 69.7135 121.512 69.7135C121.352 69.7135 121.221 69.5123 121.221 69.2669C121.221 68.4034 116.996 62.4278 114.953 60.4024C114.677 60.1284 114.374 59.3029 114.28 58.5683C114.167 57.6845 113.699 56.6827 112.898 55.6099C112.231 54.7174 111.506 53.3569 111.285 52.5862C110.712 50.5857 109.538 48.6914 108.365 47.8727C107.809 47.4844 107.284 47.0889 107.198 46.9942C107.112 46.8993 106.481 46.6314 105.796 46.3988C102.643 45.3291 96.8853 42.4371 94.0181 40.483C92.8536 39.6893 91.6616 38.8986 91.3693 38.7255C91.077 38.5526 89.9359 37.8763 88.8334 37.2229C86.092 35.5977 83.299 34.8749 81.8225 35.4084C80.7486 35.7967 80.6985 35.7789 79.7166 34.6613C79.1634 34.0316 78.1824 33.1834 77.5368 32.7761C76.8911 32.3687 76.1008 31.5093 75.7805 30.8665C75.4604 30.2238 74.9419 29.2659 74.6287 28.7381C73.9039 27.5173 74.1622 26.8553 75.4692 26.5825C76.0379 26.4639 76.8235 26.164 77.2149 25.9161C77.8555 25.5106 78.0079 25.529 78.7371 26.1023C79.7116 26.8684 80.6349 26.9129 81.5953 26.2409C82.6972 25.4695 83.0955 24.0601 83.7122 18.7497C84.0051 16.2258 82.8892 14.1035 80.284 12.2307C78.4869 10.9387 78.102 10.4676 76.9696 8.1728C76.0796 6.36914 75.2856 5.24652 74.3691 4.49603C73.0616 3.42541 70.0117 1.836 69.2535 1.83008C69.037 1.82821 68.6163 1.69929 68.3187 1.54297C68.0211 1.38695 66.9363 1.09516 65.908 0.894618C64.8796 0.694073 63.4502 0.401351 62.7316 0.244402C61.1716 -0.0968991 58.8974 -0.079149 57.1826 0.287687ZM66.687 1.78929C69.5695 2.54227 71.4383 3.29556 73.1198 4.38299C74.6527 5.37451 75.3352 6.27914 76.6938 9.12134C77.5202 10.8509 78.045 11.4902 79.5149 12.559C81.9166 14.3053 82.5704 15.2028 82.7898 17.0541C83.0313 19.0901 82.7982 19.7157 81.9643 19.2698C80.6536 18.5691 78.3728 21.1563 78.0176 23.7472C77.8428 25.0227 77.7521 25.1285 76.5439 25.4702C74.477 26.0544 73.8353 26.49 73.1956 27.7431C72.6334 28.8442 72.6265 28.9866 73.0918 29.8853C73.3657 30.415 74.0905 31.2875 74.7026 31.8244L75.8147 32.8003L75.6063 38.1444C75.3274 45.2793 74.7677 46.7635 71.491 49.0539C70.3078 49.881 68.3202 50.4683 68.0706 50.0647C67.9722 49.9053 68.6007 48.9798 69.4673 48.0079C71.056 46.2269 71.6091 44.8256 71.2143 43.5825C70.9288 42.6847 70.4701 42.7697 70.1008 43.7889C69.2414 46.1606 67.1781 48.6126 64.7048 50.2026C60.4733 52.9225 60.2514 52.9654 58.6849 51.3686C57.9401 50.6093 57.1393 50.1111 56.5575 50.0451C55.8675 49.9669 55.5986 49.7567 55.5247 49.2385C55.4496 48.7088 55.2194 48.5379 54.5815 48.5379C53.6055 48.5379 52.3524 47.759 52.3524 47.1521C52.3524 46.5592 51.5497 46.3297 50.22 46.5421C48.7339 46.7797 48.1402 46.131 47.867 43.9708C47.5915 41.791 46.5578 40.0642 43.7803 37.1429C42.4924 35.7886 41.0415 34.0942 40.5566 33.3777C39.6364 32.0187 38.4388 28.7063 38.7539 28.3911C38.8542 28.2912 39.8321 29.0473 40.9275 30.0712C43.1085 32.11 44.6735 33.0831 47.5223 34.1715C48.5507 34.5645 49.6092 34.9982 49.875 35.1359C50.1405 35.2735 51.1923 35.5522 52.2122 35.7553C53.2318 35.9583 54.5734 36.2548 55.1932 36.4145C55.813 36.574 57.6737 36.7044 59.3278 36.7044C65.4013 36.7044 70.1304 34.4838 71.1949 31.1321C71.6851 29.5888 69.9425 29.7078 67.5047 31.3841C66.7363 31.9125 65.8522 32.3336 65.5403 32.3202C65.1052 32.3012 65.0806 32.2535 65.4349 32.1143C66.1112 31.8493 66.687 31.2056 66.687 30.7149C66.687 30.4218 65.9232 30.1615 64.272 29.8918C61.2402 29.3964 59.7192 28.9975 58.043 28.2569C57.3163 27.9362 56.6444 27.6737 56.5497 27.6737C56.4546 27.6737 56.2078 27.5292 56.0009 27.3529C55.794 27.1764 54.2923 26.1752 52.6641 25.1276C49.6133 23.1648 45.9312 20.2896 44.5619 18.8011C43.3983 17.5358 42.5251 17.2995 41.2497 17.9042C40.2743 18.367 38.6791 20.2541 38.2562 21.4455C37.872 22.5283 37.6361 20.7271 37.9982 19.4762C38.4896 17.7781 41.7096 11.2168 42.3805 10.5463C42.4662 10.4607 43.0664 9.60371 43.7143 8.64178C46.5195 4.4761 50.2362 2.31494 56.7151 1.08208C58.3689 0.767564 64.4169 1.19637 66.687 1.78929ZM45.0287 20.1221C46.0857 21.1067 47.2898 22.159 47.704 22.4604C48.1181 22.7616 48.8779 23.3311 49.392 23.726C50.6342 24.6801 55.1664 27.6737 55.3686 27.6737C55.4565 27.6737 55.9006 27.9237 56.3555 28.2295C57.5843 29.0557 62.5032 30.4763 64.1339 30.4763C65.3729 30.4763 65.6347 30.9279 64.7531 31.5451C63.6927 32.2872 60.4368 32.1747 57.65 31.2991C53.1813 29.8952 48.8324 27.91 47.9816 26.8852C47.7725 26.6339 47.4687 26.428 47.306 26.428C47.1434 26.428 46.8 26.2178 46.5429 25.9609C46.2858 25.704 45.7348 25.4938 45.3188 25.4938C44.6666 25.4938 44.5619 25.6396 44.5619 26.547C44.5619 29.1616 50.216 32.5235 56.6977 33.7629C61.3153 34.6457 64.8855 34.0176 68.2451 31.7307C69.5882 30.8167 70.1149 30.7326 70.1149 31.4327C70.1149 32.5051 67.9182 34.3023 65.5742 35.1474C63.6444 35.8431 62.9681 35.9219 59.2081 35.8882C55.4409 35.8543 54.6429 35.745 51.5737 34.8413C49.6884 34.2861 47.5148 33.5421 46.7436 33.1877C43.7024 31.7911 40.8938 29.5325 39.2357 27.1505C37.68 24.9159 38.1123 22.0989 40.3983 19.5703C41.9658 17.8364 42.6647 17.9195 45.0287 20.1221ZM81.4925 20.2055C81.7066 20.5518 80.6193 22.5233 79.7371 23.3887C78.433 24.668 78.8524 22.0855 80.1915 20.5892C80.8814 19.8185 81.1958 19.7257 81.4925 20.2055ZM82.2466 23.8574C81.8406 25.3073 80.7477 26.3172 79.9263 26.0024C79.0721 25.6748 79.0431 24.8875 79.8574 24.1333C80.2859 23.7366 81.0385 22.802 81.5302 22.0568L82.4239 20.7016L82.5277 21.5932C82.5847 22.0836 82.4582 23.1025 82.2466 23.8574ZM47.7694 27.6182C49.3213 28.7564 52.0181 30.0061 56.4035 31.6192C57.7388 32.1103 59.4908 32.4382 61.5453 32.5821L64.6615 32.7997L62.7918 33.0056C59.6188 33.355 57.1293 33.2983 55.406 32.8377C51.0268 31.6671 47.1384 29.6782 45.9888 28.0206C45.5466 27.3831 45.1851 26.7641 45.1851 26.6448C45.1851 26.1123 46.2764 26.5233 47.7694 27.6182ZM78.347 34.2325C79.7658 35.4772 79.883 35.9484 79.3155 38.1266C78.8699 39.8353 78.3283 46.5411 78.1432 52.6382C78.0665 55.159 77.8465 56.0565 77.4118 55.622C77.3115 55.5221 77.1959 53.4864 77.1547 51.0989C77.0924 47.4906 76.9755 46.5533 76.4635 45.5459C76.0335 44.6998 75.912 44.0518 76.0606 43.3997C76.1778 42.8859 76.2903 40.4918 76.3105 38.0799C76.3554 32.7185 76.4399 32.559 78.347 34.2325ZM86.3385 36.7157C87.0992 37.0641 87.9318 37.4798 88.1889 37.6396C88.446 37.799 89.4077 38.3895 90.326 38.9519C91.2441 39.5143 92.3086 40.1844 92.6912 40.4413C93.0739 40.6982 94.0053 41.321 94.761 41.8255C95.9963 42.6498 98.9134 44.1536 101.9 45.5057C102.5 45.7773 104.043 46.4773 105.328 47.0612C108.017 48.2825 109.691 49.5767 109.691 50.434C109.691 50.7613 109.831 51.0291 110.002 51.0291C110.174 51.0291 110.314 51.3795 110.314 51.8076C110.314 52.2358 110.234 52.5862 110.136 52.5862C110.039 52.5862 109.302 52.0381 108.5 51.3682C106.086 49.3519 104.55 48.712 101.815 48.5843C99.6594 48.4837 99.2041 48.5665 97.685 49.3344C95.5285 50.4247 93.4824 52.6313 92.2656 55.1795C90.9614 57.91 90.5769 59.9901 90.7533 63.3599C90.8854 65.8791 91.0465 66.5178 92.0948 68.6693C93.5622 71.6819 96.5958 74.8025 102.041 78.9C106.17 82.0075 106.992 82.7517 107.853 84.164C108.88 85.8452 108.777 85.9066 104.937 85.9066C102.023 85.9066 101.084 85.7811 99.3836 85.1648C96.9545 84.2842 95.3562 83.4901 95.3562 83.1631C95.3562 83.0333 94.9539 82.6891 94.4619 82.3989C93.647 81.9178 90.0587 77.8415 90.0587 77.3965C90.0587 77.2931 89.5264 76.3851 88.8757 75.3792C87.7735 73.6755 84.4491 67.2054 83.4043 64.731C82.5747 62.7663 81.6156 59.9332 81.2429 58.3472C80.8237 56.5622 80.705 37.5135 81.1076 36.6266C81.4691 35.8306 84.5215 35.8826 86.3385 36.7157ZM80.394 41.5312C80.3968 42.7302 80.2373 45.5437 80.0391 47.7833C79.4118 54.87 80.6692 60.8256 84.4585 68.7185C85.4819 70.8498 86.3192 72.7048 86.3192 72.8403C86.3192 72.9761 86.4242 73.1337 86.5529 73.191C86.8396 73.3183 88.8122 76.5115 88.8122 76.8481C88.8122 76.9817 89.0926 77.3445 89.4354 77.6543C89.7782 77.9642 90.0587 78.3376 90.0587 78.4839C90.0587 79.4396 94.8196 83.8357 97.0222 84.9138C100.204 86.4709 100.911 86.6213 105.27 86.668C107.853 86.6954 109.499 86.8389 109.633 87.0482C110.058 87.7174 112.288 89.0207 113.006 89.0207C113.977 89.0207 113.936 89.4463 112.885 90.2685C112.414 90.6372 110.135 92.7862 107.821 95.0442C103.682 99.0837 102.818 99.7607 96.2911 104.083C94.4915 105.274 92.2478 106.903 91.3051 107.701C89.4828 109.244 85.4342 112.003 84.1378 112.585C81.8057 113.633 80.8655 114.023 80.1266 114.25C78.572 114.726 74.3174 116.338 72.8587 117.003C72.0541 117.37 71.3177 117.67 71.2227 117.67C71.1276 117.67 71.0497 116.073 71.0497 114.122C71.0497 110.406 70.5421 108.021 69.189 105.382C68.8413 104.703 68.5568 103.568 68.5568 102.86C68.5568 101.686 68.7363 101.396 70.5823 99.5848C72.5489 97.6556 72.8842 96.9537 72.4187 95.7414C72.3146 95.4705 72.0342 95.2488 71.7954 95.2488C71.5567 95.2488 71.3614 95.1086 71.3614 94.9374C71.3614 94.7661 70.7961 94.626 70.1049 94.626C68.3411 94.626 66.9753 93.9726 65.961 92.6436C65.2863 91.7595 63.3673 88.2742 62.3804 86.1402C62.3209 86.0115 62.549 85.9066 62.8871 85.9066C63.2252 85.9066 63.903 86.4129 64.3932 87.0317C64.8837 87.6505 65.4951 88.4025 65.7522 88.7027C66.0093 89.0032 66.5702 89.7095 66.9986 90.2722C68.2012 91.8517 69.5019 93.0418 71.1971 94.1134C73.9263 95.8389 73.9942 97.1125 71.525 100.253C70.7493 101.24 70.1149 102.247 70.1149 102.491C70.1149 102.978 71.3726 103.657 72.275 103.657C73.0775 103.657 73.8459 104.965 74.1607 106.867C74.5041 108.944 74.7284 109.507 75.7035 110.741C76.3707 111.586 76.7125 111.753 77.7692 111.753C78.7586 111.753 79.2014 111.566 79.7948 110.897C81.0017 109.536 81.2644 108.878 81.6767 106.187C82.1163 103.317 82.8328 102.219 83.7003 103.086C83.9633 103.349 84.3878 104.481 84.6436 105.602C84.8998 106.724 85.3684 107.876 85.6857 108.163C86.2042 108.632 86.3525 108.638 87.1546 108.224C87.6451 107.97 88.5267 107.022 89.1132 106.117C91.2687 102.794 95.0882 99.7193 100.168 97.219C101.035 96.7924 101.955 96.3144 102.212 96.1568C102.469 95.9993 103.03 95.7227 103.458 95.5427C106.806 94.1364 110.219 91.9784 110.504 91.0878C110.609 90.7614 110.484 90.303 110.219 90.038C109.833 89.6519 109.478 89.6254 108.239 89.8904C107.409 90.0679 105.679 90.3855 104.393 90.5957C103.108 90.8063 101.285 91.1821 100.342 91.4309C99.3995 91.6798 98.1374 91.9924 97.5376 92.1257C96.9377 92.259 96.2365 92.4564 95.9795 92.5645C95.7224 92.6725 94.5304 92.9811 93.3307 93.2505C82.8646 95.6 76.0357 95.8934 76.0357 93.9935C76.0357 93.6223 76.4835 93.3402 77.5159 93.0611C78.3302 92.841 79.1363 92.5716 79.3077 92.4626C79.4791 92.3536 80.1802 92.0836 80.8658 91.8625C83.1297 91.132 84.1777 90.5372 85.3765 89.3028C87.1145 87.5135 87.6355 86.1968 87.6311 83.6069C87.6271 81.2402 87.0839 79.4661 84.9973 75.0074C83.2787 71.3347 82.954 70.5562 82.7253 69.5578C82.4915 68.537 81.3943 64.9471 81.0123 63.9525C80.8805 63.6099 80.5941 62.8392 80.3753 62.2397C79.7985 60.6572 77.9384 57.9159 77.0444 57.3307C76.601 57.0402 75.6608 56.8328 74.8303 56.8418C73.4277 56.8571 70.1345 57.8028 68.5568 58.6433C67.2956 59.315 64.0644 60.12 63.0794 60.0079C62.286 59.9176 62.1769 59.7871 62.2343 58.9958C62.2704 58.4963 62.4216 58.0059 62.5696 57.9059C62.7179 57.8059 63.1716 56.7434 63.5777 55.5445C63.984 54.3456 64.5007 53.1417 64.7263 52.8689C65.1616 52.3423 67.3904 51.5763 69.9591 51.0699C72.0834 50.6514 74.428 49.2803 75.1706 48.0222C75.509 47.4495 75.8967 46.9808 76.0326 46.9808C76.5065 46.9808 76.6882 48.6344 76.6159 52.2866C76.543 55.9795 76.7755 56.9458 77.7378 56.9458C78.5433 56.9458 78.8041 55.1923 79.1563 47.4087C79.3566 42.9771 79.5854 39.1452 79.6645 38.893C79.9796 37.8915 80.389 39.3723 80.394 41.5312ZM104.092 49.5957C105.606 50.055 107.71 51.3608 109.223 52.7792C110.039 53.544 110.085 53.6708 109.585 53.772C109.27 53.8358 107.848 53.525 106.423 53.0813C102.912 51.9873 100.883 52.0094 99.0645 53.1619C95.4547 55.4495 93.8377 59.8653 94.8505 64.67C95.5868 68.1646 96.7663 69.8689 102.195 75.2839C106.604 79.6813 108.268 81.8272 107.704 82.3905C107.594 82.5011 107.329 82.3715 107.117 82.1028C106.904 81.834 104.539 79.9239 101.86 77.8577C96.6613 73.8483 94.2213 71.406 93.0016 68.9904C92.1288 67.2621 91.3051 63.9914 91.3051 62.2538C91.3051 60.5784 92.2263 56.2604 92.7034 55.7002C92.9221 55.4433 93.2017 54.904 93.3244 54.5016C93.4475 54.0993 94.3696 52.9493 95.3737 51.9459C97.9682 49.3531 100.787 48.5933 104.092 49.5957ZM66.7814 50.5362C66.8151 50.6931 66.4271 50.96 65.9189 51.1294C64.7609 51.5149 64.0629 52.352 63.4053 54.1432C62.4166 56.8362 61.4303 58.6601 61.2361 58.1547C61.1352 57.8916 61.1984 57.2924 61.3767 56.8235C61.5552 56.3548 61.703 55.5249 61.7054 54.9793C61.7132 53.1517 62.0274 52.6435 63.6808 51.7849C64.563 51.3265 65.4013 50.751 65.544 50.5053C65.8185 50.0326 66.6777 50.0541 66.7814 50.5362ZM58.8722 52.4706C59.2284 52.9228 59.5197 53.6384 59.5197 54.0603C59.5197 55.556 58.062 57.7726 57.4683 57.1794C57.1589 56.8705 56.0919 53.6683 56.0919 53.0492C56.0919 52.6995 56.3107 52.1013 56.5777 51.7201C57.1455 50.9102 57.817 51.1297 58.8722 52.4706ZM106.57 53.8181C107.51 54.1681 108.936 54.4546 109.738 54.4546C111.122 54.4546 111.252 54.5315 112.309 55.9705C112.922 56.8045 113.46 57.8203 113.504 58.2282C113.59 59.008 113.566 59.0123 111.483 58.6013C110.854 58.477 110.626 58.5564 110.626 58.8987C110.626 59.5162 111.971 60.3741 113.179 60.5267C114.493 60.693 115.917 62.1373 118.244 65.6652C120.068 68.4305 120.538 69.2177 122.661 73.0611C124.059 75.5916 125.488 77.6388 126.414 78.441C128.142 79.9373 128.208 80.1387 127.423 81.5338C127.034 82.2261 126.581 82.7925 126.417 82.7925C126.254 82.7925 125.964 82.9819 125.774 83.2132C125.584 83.4446 124.516 83.9597 123.402 84.358C121.016 85.2112 119.899 85.7727 118.416 86.8667C116.464 88.3063 113.547 88.7986 111.934 87.9603C110.629 87.2815 109.581 86.0184 109.816 85.4065C110.089 84.6968 108.394 81.2227 106.719 79.0557C105.991 78.1137 104.012 76.0248 102.323 74.4135C96.4435 68.8064 95.2291 66.5558 95.4173 61.6169C95.5014 59.4072 95.6993 58.3039 96.1992 57.2572C96.9352 55.7158 98.8146 53.7377 100.031 53.2248C101.136 52.7584 104.558 53.0688 106.57 53.8181ZM61.0532 53.9096C61.0002 55.4134 60.2754 58.8065 59.9339 59.1478C59.516 59.5654 59.0302 59.3343 58.5871 58.5072C58.3608 58.0843 58.3932 57.8044 58.7052 57.493C59.3627 56.8359 60.4546 54.5583 60.4546 53.8442C60.4546 53.4948 60.5948 53.209 60.7662 53.209C60.9376 53.209 61.0666 53.5241 61.0532 53.9096ZM77.1803 58.3163C78.4769 59.4168 79.9107 62.4369 81.1862 66.7551C82.5458 71.3583 82.8677 72.2402 84.1946 74.9928C86.2213 79.1977 86.9424 81.4697 86.9424 83.6517C86.9424 84.7254 86.8187 85.8471 86.6673 86.1445C86.5158 86.4419 86.2002 87.0952 85.9661 87.5963C85.5545 88.4766 82.2653 90.8891 81.4763 90.8891C81.2653 90.8891 80.6913 91.0987 80.2002 91.3546C79.7094 91.6106 78.825 91.9114 78.2348 92.0232C76.7203 92.3103 75.1008 93.3377 75.1008 94.0116C75.1008 94.9934 75.9615 95.5026 77.9877 95.7196C80.3491 95.9722 87.3634 95.4144 89.7442 94.7848C92.7816 93.9814 102.936 91.5767 104.705 91.2416C107.167 90.7757 109.457 90.6832 109.582 91.0448C109.736 91.4892 107.759 92.6672 101.892 95.6293C96.6803 98.2607 94.8807 99.355 92.7025 101.218C90.9742 102.696 88.8125 105.002 88.8106 105.369C88.8084 105.87 86.9549 107.705 86.4516 107.705C85.9212 107.705 85.47 106.67 85.1886 104.806C84.977 103.404 84.0238 102.093 83.2267 102.11C82.0565 102.133 81.5582 102.997 80.993 105.981C80.3392 109.431 79.328 111.137 77.9462 111.121C76.375 111.102 75.3277 109.658 74.7702 106.743C74.2579 104.064 74.0298 103.699 72.4252 102.99C71.6689 102.656 71.0497 102.27 71.0497 102.133C71.0497 101.996 71.3495 101.547 71.716 101.135C72.9678 99.729 74.1659 97.6189 74.1647 96.8226C74.1631 95.6598 73.1457 94.1831 71.9435 93.5986C70.0074 92.6573 69.2872 91.9949 66.7076 88.7812C64.271 85.7459 62.6774 84.4062 62.0009 84.8241C60.8127 85.5578 59.8987 83.5664 58.5677 77.3429C58.2013 75.6302 57.774 73.8085 57.6182 73.2947C57.3443 72.3906 56.4521 65.5687 56.1932 62.3954C56.0969 61.2133 56.2181 60.5946 56.6977 59.8263C57.4135 58.6791 58.1368 58.5166 58.4291 59.4371C58.5677 59.8734 58.9005 60.0599 59.5406 60.0599C60.0433 60.0599 60.4546 59.9157 60.4546 59.7392C60.4546 59.5629 60.8628 59.7202 61.3617 60.0885C62.1252 60.6528 62.5811 60.7378 64.2442 60.6257C65.3305 60.5525 66.7104 60.2639 67.3103 59.9842C71.4215 58.0685 72.7456 57.6406 74.6873 57.6013C75.9665 57.5755 76.4813 57.7231 77.1803 58.3163ZM128.474 86.2959C129.225 87.9201 129.313 88.4053 129.366 91.2494C129.41 93.6366 129.324 94.1025 128.612 95.3157C128.171 96.0693 127.167 97.2773 126.383 97.9997C125.09 99.1902 119.931 102.723 119.484 102.723C119.383 102.723 117.524 103.892 115.352 105.322C113.181 106.752 110.633 108.343 109.691 108.858C108.748 109.372 107.276 110.207 106.419 110.712C104.912 111.601 97.0798 115.49 96.7975 115.49C96.4777 115.49 92.0755 118.091 91.9804 118.336C91.9231 118.484 91.7486 118.604 91.5925 118.604C91.436 118.604 90.4787 119.272 89.465 120.089C85.5554 123.237 83.3519 123.768 78.1164 122.826C75.2317 122.307 75.118 122.31 72.9971 122.941C69.6692 123.931 68.1532 124.071 67.625 123.435C67.2324 122.962 67.3389 122.762 68.6163 121.573C69.4034 120.84 70.1429 119.94 70.2598 119.573C70.5262 118.733 72.0815 117.937 76.8147 116.215C78.8714 115.467 80.8347 114.74 81.1774 114.6C82.6455 113.998 87.4491 111.577 87.8773 111.224C90.0646 109.416 94.9517 105.83 98.1608 103.678C102.765 100.59 104.871 98.8617 109.706 94.2018C111.686 92.2942 113.583 90.5232 113.921 90.2663C115.259 89.2505 117.285 88.3978 118.362 88.3978C119.555 88.3978 121.858 87.557 124.482 86.1632C125.345 85.7051 126.491 85.3196 127.028 85.3068C127.837 85.2878 128.086 85.4582 128.474 86.2959ZM62.3031 87.4337C62.6575 87.9314 62.9476 88.4175 62.9476 88.5146C62.9476 89.248 64.7194 92.2555 65.8855 93.5015C66.669 94.3389 67.3103 95.1189 67.3103 95.2354C67.3103 95.3519 66.2741 96.4726 65.008 97.7263C62.7491 99.9622 61.8762 100.632 58.1174 103.016C57.0891 103.668 55.4063 105.032 54.378 106.047C51.7953 108.596 51.1599 109.001 50.3911 108.59C49.1624 107.933 48.0499 107.779 46.708 108.079C45.9561 108.247 43.9387 108.477 42.2247 108.59C39.1768 108.791 39.1063 108.812 39.0157 109.591C38.8573 110.95 39.9022 111.238 44.3609 111.066C47.6145 110.941 48.1798 110.985 47.8296 111.335C47.297 111.867 39.5716 111.936 39.0484 111.413C38.6701 111.035 37.5523 111.61 36.0995 112.93C35.5766 113.405 35.0599 113.615 34.6963 113.5C34.3753 113.398 33.4629 113.65 32.6346 114.069C29.9213 115.442 28.4523 115.393 29.3479 113.96C29.9225 113.04 29.4458 112.833 28.4878 113.586C27.294 114.524 26.3601 114.433 27.0379 113.443C27.1637 113.26 27.4772 113.017 27.7343 112.905C27.9914 112.793 28.7627 112.348 29.4482 111.917C30.1338 111.487 31.0453 110.963 31.4738 110.753C31.9023 110.543 33.2846 109.527 34.5458 108.493C38.8923 104.933 38.8985 104.929 41.0979 104.915C42.192 104.908 43.6298 105.065 44.293 105.263C46.2855 105.86 48.9854 104.809 51.5064 102.456C53.6176 100.485 54.9978 98.3697 57.6338 93.064C60.4892 87.317 60.9414 86.5294 61.3867 86.5294C61.5362 86.5294 61.9485 86.9364 62.3031 87.4337ZM71.476 95.9074C72.1108 96.813 71.8634 97.3097 69.7574 99.3596C67.9803 101.09 67.9335 101.178 67.9335 102.808C67.9335 104.067 68.1806 104.975 68.9338 106.482C69.931 108.477 69.9341 108.499 69.9466 113.406L69.9591 118.328L67.9335 119.426C66.8195 120.03 65.4471 120.874 64.8834 121.302C63.511 122.343 62.2405 124.389 62.4857 125.162C62.6958 125.823 63.5596 125.965 64.0984 125.426C64.5608 124.964 67.678 125.616 68.6088 126.369L69.3034 126.931L68.6194 127.148C67.7702 127.417 67.4524 128.57 67.8849 129.809C68.2037 130.723 68.1859 130.749 67.2473 130.749C66.6954 130.749 65.3907 130.236 64.2006 129.55C62.8943 128.797 61.5556 128.287 60.6048 128.18C59.1449 128.016 58.2732 127.398 58.2732 126.528C58.2732 125.709 59.5721 124.521 60.4661 124.521C61.9607 124.521 62.5138 122.842 61.3895 121.718C60.5696 120.899 57.7974 120.856 56.851 121.647C55.7307 122.584 55.157 123.824 55.157 125.309C55.157 127.036 55.5625 127.879 56.5783 128.265C57.6637 128.678 57.5173 129.198 56.3256 129.161C55.1785 129.126 53.4428 128.65 54.2817 128.6C55.0582 128.555 55.2826 127.981 54.7585 127.382C52.6656 124.99 53.8351 121.279 56.9838 120.321C58.1679 119.961 57.2966 119.474 52.9757 118.081C46.025 115.84 41.5641 114.618 39.1085 114.283C36.59 113.939 36.1952 113.473 37.68 112.597C38.3641 112.193 38.7826 112.134 39.3718 112.358C40.3478 112.729 46.4257 112.461 48.2696 111.966C49.2241 111.709 49.9258 111.243 50.5812 110.43C51.0985 109.788 51.6394 109.262 51.7834 109.262C51.9271 109.262 53.0604 108.273 54.3019 107.064C56.4082 105.013 57.2493 104.381 61.1903 101.887C62.7192 100.919 67.9335 95.9859 67.9335 95.5072C67.9335 95.3649 68.6266 95.2488 69.4739 95.2488C70.6889 95.2488 71.1118 95.388 71.476 95.9074ZM49.392 109.262C49.392 110.254 40.1556 111.032 39.7866 110.071C39.5118 109.355 39.8583 109.262 42.8221 109.257C44.379 109.255 45.8629 109.113 46.12 108.943C46.8567 108.454 49.392 108.702 49.392 109.262ZM37.2388 114.515C37.753 114.693 40.6277 115.417 43.627 116.123C46.6264 116.829 49.6619 117.661 50.3724 117.973C51.0829 118.285 52.1346 118.642 52.7096 118.766C53.2845 118.889 54.1617 119.199 54.6591 119.453L55.5637 119.915L54.5921 120.822C53.2533 122.073 52.7507 123.851 53.23 125.642C53.4328 126.401 53.5989 127.143 53.5989 127.292C53.5989 127.655 51.4363 126.907 48.7688 125.621C45.1982 123.9 44.2521 123.587 42.6283 123.587C40.6719 123.587 40.7452 124.168 42.7875 124.855C43.5887 125.124 44.3388 125.44 44.455 125.556C44.5709 125.672 44.9773 125.767 45.3584 125.767C45.7392 125.767 46.3821 126.035 46.7866 126.363L47.5223 126.96L46.7432 127.127C46.3148 127.219 44.5619 127.532 42.848 127.822C41.1341 128.113 39.2079 128.533 38.5679 128.756C36.0652 129.627 28.3507 130.523 24.9297 130.339C21.7213 130.166 19.0588 129.568 18.1535 128.817C17.4343 128.221 17.1236 127.094 17.4452 126.249C17.8512 125.181 19.0535 124.664 22.1251 124.235C23.582 124.032 25.6153 123.736 26.6437 123.577C30.5557 122.972 34.7813 122.706 36.3039 122.969C37.1609 123.117 38.1948 123.247 38.6012 123.257C39.2238 123.273 39.2793 123.202 38.9527 122.808C38.7392 122.551 38.2665 122.338 37.9019 122.334C36.9689 122.325 34.8549 121.306 34.1696 120.536C33.8119 120.134 33.5517 119.276 33.4834 118.275C33.423 117.388 33.2899 116.579 33.1877 116.476C32.8234 116.112 31.9397 116.968 31.8427 117.779C31.7499 118.554 31.6452 118.604 30.1051 118.604C28.7689 118.604 28.3339 118.463 27.7493 117.842C26.9796 117.023 27.0637 116.113 27.9095 116.113C28.188 116.113 28.4894 116.393 28.5788 116.736C28.7726 117.476 29.2385 117.55 29.4959 116.88C29.7156 116.307 31.2074 115.49 32.0325 115.49C32.3569 115.49 33.2404 115.147 33.9957 114.727C35.3896 113.952 35.5791 113.94 37.2388 114.515ZM68.6649 120.405C68.5848 120.71 68.1077 121.235 67.6041 121.573C66.6761 122.194 66.324 123.637 66.9986 124.054C67.17 124.16 67.3103 124.378 67.3103 124.539C67.3103 124.943 65.5256 124.911 65.2735 124.503C65.1548 124.311 64.6814 124.258 64.1408 124.377L63.2121 124.581L63.6733 123.694C64.1838 122.714 65.1863 121.774 66.3754 121.161C66.8039 120.94 67.505 120.557 67.9335 120.309C68.362 120.062 68.7344 119.857 68.7612 119.855C68.788 119.852 68.7447 120.1 68.6649 120.405ZM60.0654 121.738C60.588 121.92 61.0891 122.35 61.1788 122.693C61.31 123.195 61.0791 123.43 60.0074 123.889C58.6456 124.473 57.1044 126.382 57.4908 127.007C57.7912 127.492 57.3783 127.942 56.8264 127.731C55.9928 127.411 55.5048 125.819 55.8513 124.55C56.219 123.202 56.578 122.731 57.8058 121.98C58.9058 121.308 58.8494 121.314 60.0654 121.738ZM51.2618 127.517L52.5082 128.314L50.6744 128.123C48.493 127.895 48.1477 127.728 48.636 127.14C49.1589 126.511 49.8408 126.609 51.2618 127.517ZM70.4265 128.718C70.4265 129.418 69.1479 130.176 68.6559 129.768C67.6397 128.925 68.7073 127.36 69.873 127.984C70.1775 128.147 70.4265 128.477 70.4265 128.718ZM43.3992 128.774C43.1883 128.859 42.7676 128.864 42.4644 128.785C42.1612 128.706 42.3338 128.636 42.848 128.63C43.3622 128.624 43.6102 128.688 43.3992 128.774ZM41.0562 129.407C40.7561 129.485 40.2656 129.485 39.9655 129.407C39.6654 129.328 39.9109 129.264 40.5108 129.264C41.1107 129.264 41.3562 129.328 41.0562 129.407ZM39.2643 129.815C39.2643 129.986 38.8084 130.116 38.2516 130.104C37.4027 130.086 37.3398 130.039 37.862 129.815C38.723 129.445 39.2643 129.445 39.2643 129.815Z" fill="black"/>
</svg>
