<svg width="156" height="141" viewBox="0 0 156 141" fill="none" xmlns="http://www.w3.org/2000/svg">
<path id="DELIVERED" fill-rule="evenodd" clip-rule="evenodd" d="M126.184 0.32213C125.091 0.759756 121.618 3.12686 117.966 5.92484C116.534 7.02148 115.704 7.93047 115.351 8.78805C113.706 12.7836 114.141 15.9318 117.777 26.3281C119.695 31.8123 119.752 32.0703 120.072 36.7708C120.377 41.238 120.721 42.8564 121.125 41.7244C121.214 41.4741 121.578 39.9167 121.932 38.2639C122.288 36.6111 122.813 34.8037 123.1 34.2475C123.388 33.6913 123.875 32.3701 124.182 31.311C124.726 29.4349 124.778 29.3755 126.223 28.9677C128.594 28.2991 128.625 26.3281 126.264 26.3281C125.475 26.3281 125.089 26.5206 124.812 27.0511C124.605 27.4485 124.396 27.8209 124.348 27.8781C124.187 28.07 121.602 26.0631 121.038 25.3076C118.183 21.4895 116.355 16.9127 116.333 13.5303C116.318 11.2686 116.359 11.1381 117.369 10.2368C118.745 9.00751 119.164 9.05281 119.827 10.5035C120.364 11.6795 121.08 12.2573 125.092 14.7474C127.261 16.0937 127.919 16.9513 128.687 19.4354C129.387 21.7003 130.128 28.6724 129.817 30.0727C129.47 31.6333 128.317 35.1504 128.059 35.4328C127.924 35.5803 127.825 34.9554 127.839 34.0438C127.876 31.5848 126.822 31.1603 125.659 33.166C125.329 33.735 124.67 34.6514 124.194 35.2031C123.541 35.9591 123.271 36.7065 123.098 38.2385C122.856 40.374 122.499 41.3434 119.558 47.856C116.966 53.5946 116.136 56.4106 115.914 60.2265C115.735 63.3066 115.71 63.3959 115.293 62.3854C115.052 61.7997 114.502 61.1956 114.054 61.0256C112.401 60.3978 109.008 59.7497 108.303 59.9267C107.9 60.0273 106.716 59.8943 105.67 59.6305C102.558 58.8458 97.6258 58.1078 97.0273 58.3372C96.6338 58.4879 96.508 58.8115 96.5997 59.4358C96.6926 60.0691 96.6096 60.2747 96.3078 60.1587C96.0755 60.07 95.8857 59.8618 95.8857 59.6964C95.8857 59.5309 95.208 58.6723 94.3798 57.7881C92.7153 56.0112 91.8234 55.8371 91.1651 57.1606C90.9492 57.595 90.4894 58.0548 90.1435 58.1827C89.3912 58.4606 88.9793 60.3907 89.304 62.1178C89.5369 63.358 90.8825 64.7483 92.16 65.0687C92.7253 65.2104 92.9743 65.6188 93.2668 66.8838C93.4744 67.7815 93.5764 68.5838 93.4933 68.6667C93.4107 68.7496 92.3582 68.2651 91.1551 67.59C89.952 66.9153 87.2302 65.5237 85.1066 64.4977C80.3081 62.1798 79.6153 61.7749 79.7202 61.3498C79.7662 61.1635 79.2495 60.2561 78.5719 59.3336C77.8942 58.4108 76.4981 56.2101 75.4688 54.4429C74.4398 52.6757 73.4166 51.0129 73.1949 50.7478C72.9732 50.4827 72.3683 49.4652 71.8505 48.4864C70.7202 46.3494 68.3134 43.0363 67.8912 43.0363C67.7249 43.0363 67.4675 42.5663 67.3191 41.9921C67.0537 40.9652 67.0151 40.9462 64.987 40.8505C61.9608 40.7072 61.5998 40.8675 61.0026 42.617C60.5039 44.0787 56.957 50.3973 56.6305 50.4056C56.542 50.4082 55.9705 49.6753 55.3605 48.7775C53.7999 46.4811 44.9839 37.6251 44.7986 38.1678C44.7171 38.4059 45.3111 39.2735 46.1187 40.0957C48.2446 42.2604 50.996 48.8996 51.7982 53.8003C52.9356 60.7525 52.9221 60.5372 52.3188 62.1152C51.7075 63.7137 51.3259 63.7947 51.015 62.3918C50.9079 61.9076 50.2576 60.0659 49.5697 58.2987C48.8821 56.5314 47.8582 53.8565 47.2948 52.3544C44.8272 45.7758 43.6383 42.805 43.0755 41.8131C42.3583 40.5484 42.2965 38.9322 42.9314 38.0271C43.1836 37.6675 43.9687 36.9729 44.676 36.4835C45.8008 35.7053 48.558 32.1117 49.0873 30.7343C49.4889 29.6887 54.3929 29.1563 56.5268 29.9271C59.0871 30.8516 58.2177 28.9295 54.1735 24.7229L52.1344 22.6022L47.7819 22.795L49.5517 22.3037C51.9839 21.6286 52.2271 21.2305 52.0019 18.2953C51.7622 15.1677 51.3349 13.7321 50.2669 12.4648C48.8933 10.8342 45.8185 8.73407 44.4729 8.50722C42.8461 8.2325 38.1947 8.83014 35.4822 9.6617C32.8415 10.4714 31.3224 11.9189 29.5103 15.3521L28.2921 17.6598L29.129 17.9776C29.5894 18.1524 30.3134 18.2953 30.7381 18.2953C31.1722 18.2953 31.6561 18.5675 31.8434 18.9168C32.335 19.8344 32.2761 19.9013 31.1307 19.7239L30.0849 19.5616L31.1159 20.1046C32.4464 20.8048 32.7424 21.5085 31.7066 21.5085C30.3925 21.5085 29.833 22.3773 30.0038 24.1522C30.1123 25.28 30.3964 25.9679 31.0232 26.6212C31.6902 27.3165 31.9373 27.9646 32.0869 29.4111C32.244 30.9306 32.5577 31.7005 33.7083 33.3902C34.4928 34.5428 35.5189 35.8788 35.9883 36.3598C36.4578 36.8408 37.0952 37.5275 37.4051 37.886C38.1943 38.7998 39.4 38.699 41.4409 37.5487L43.1962 36.5597L42.5127 37.5181C41.4783 38.9689 41.6614 40.2602 43.4684 44.2554C44.3712 46.2514 45.6596 49.4324 46.3318 51.3243C49.3325 59.7709 51.1222 64.3907 51.4343 64.4948C51.9443 64.6645 53.4128 61.5259 53.4128 60.2664C53.4128 58.7102 51.2943 48.8457 50.5613 46.9885C50.2267 46.1402 49.7158 44.9041 49.4262 44.2413C49.1366 43.5787 49.0288 43.0363 49.1865 43.0363C49.5935 43.0363 53.4321 47.1533 54.9953 49.2666C56.3689 51.1231 56.5429 51.9087 55.9541 53.5956C55.7591 54.1544 55.6973 54.8629 55.817 55.17C56.0124 55.6706 56.0995 55.6491 56.661 54.9612C57.1218 54.3973 57.2733 53.7598 57.2341 52.5513C57.1855 51.0598 57.3702 50.5926 59.2384 47.4836C60.9164 44.6911 61.315 44.205 61.3996 44.8508C61.4566 45.2865 61.1892 46.2443 60.8057 46.9792L60.1081 48.3158L61.391 49.4513C62.0966 50.076 63.0155 50.8272 63.4329 51.1205C64.1694 51.6382 64.1527 51.644 62.8736 51.3085C62.1487 51.1183 61.3482 51.0421 61.0949 51.1392C60.8417 51.2362 59.6975 52.9282 58.552 54.8998C57.4069 56.8711 55.428 60.0736 54.1551 62.0162C52.8822 63.9592 51.7448 65.8694 51.6277 66.2614C51.5105 66.6534 50.7966 68.1308 50.0407 69.5446C49.2852 70.9583 48.495 72.6504 48.2849 73.3046C48.0748 73.9587 47.6372 74.5786 47.3119 74.6817C46.9865 74.7845 45.5238 75.5871 44.0614 76.465C42.5987 77.3428 41.3286 77.9877 41.2389 77.8983C40.9139 77.5735 42.6369 76.0987 44.277 75.2973C47.4647 73.7399 47.6265 72.7541 45.2892 69.1269C44.3066 67.6013 44.0762 67.0117 44.3552 66.7331C44.9852 66.104 44.7706 64.1661 43.5758 59.7018C42.9436 57.3395 42.2019 54.3954 41.9281 53.1593C41.2807 50.2398 40.3434 48.1638 38.3227 45.1734C37.4199 43.8374 36.6811 42.618 36.6811 42.4641C36.6811 42.3105 36.3243 41.8494 35.8879 41.4404C34.4107 40.0546 30.3372 33.8937 29.1621 31.268C27.8831 28.4106 27.7644 27.6298 28.4459 26.5579C29.0665 25.5808 29.3449 18.9399 28.7297 19.7801C28.4674 20.1381 28.3152 21.3632 28.3152 23.115C28.3152 25.0522 28.1733 26.0714 27.8429 26.5077C27.5829 26.8506 27.3657 27.4669 27.3602 27.8769C27.3464 28.8768 29.0694 32.9549 30.2484 34.7124C30.7706 35.491 31.5831 36.7065 32.0538 37.4134C32.5249 38.1203 33.6105 39.5675 34.4667 40.6291C37.639 44.5626 40.91 50.5705 41.5166 53.577C41.7196 54.5833 42.1755 56.4913 42.5298 57.8167C43.5376 61.587 43.7457 62.4519 43.7284 62.797C43.7017 63.3249 42.1517 58.7472 41.7746 57.0259C40.9094 53.0799 37.583 47.1954 34.5932 44.3216C31.8826 41.7164 31.2417 40.702 30.7864 38.2976C30.2967 35.7111 29.0781 33.4445 27.5536 32.2833C26.7054 31.6372 26.115 31.4691 24.6922 31.4691C22.9862 31.4691 22.8501 31.5311 21.8841 32.7492C21.3256 33.4535 19.1054 35.5691 16.9499 37.4507C11.9571 41.8099 12.07 41.7013 12.2949 41.9262C12.3998 42.0306 13.173 41.5924 14.0135 40.9517C17.6944 38.146 19.7811 37.8828 22.9006 39.8306C25.1069 41.2081 25.9673 41.9709 26.8798 43.3577C27.2869 43.9762 28.1119 45.0211 28.7133 45.6795C29.3143 46.3378 30.3034 47.7516 30.9109 48.8212C31.5184 49.8906 32.9824 52.2419 34.1639 54.0464C35.8265 56.5845 36.275 57.5153 36.146 58.1592C36.0051 58.8619 36.3851 59.413 38.5856 61.6975C41.3287 64.5453 45.4572 70.0333 46.2098 71.8323C46.6197 72.8117 46.6008 72.9444 45.9688 73.5324C45.592 73.8832 44.5424 74.5519 43.6367 75.0187C42.7312 75.4856 41.6379 76.3072 41.2073 76.8444C40.4692 77.765 40.457 77.845 40.9937 78.237C41.5915 78.6733 42.0681 78.459 45.9752 75.9946L47.3865 75.1045L47.1867 76.0196C45.4537 83.9602 45.1557 91.8256 46.2938 99.5747C46.9412 103.98 46.9473 104.238 46.4138 104.537C46.1046 104.711 44.9826 105.295 43.9208 105.835C42.5414 106.537 41.9609 107.023 41.8872 107.54C41.7463 108.531 42.532 108.487 45.4408 107.339C48.8853 105.981 53.8601 104.488 56.7913 103.933C59.5305 103.415 63.5789 102.288 69.3401 100.44C71.2868 99.816 73.4587 99.2036 74.1666 99.0798C74.8745 98.9558 76.8755 98.1988 78.6134 97.3968C81.377 96.1222 81.7496 95.8558 81.5849 95.2729C81.4809 94.9067 81.1843 92.8718 80.9256 90.7511C80.0066 83.2212 77.8566 72.2764 75.4672 62.9625C75.2184 61.9931 75.0621 61.1532 75.1197 61.0957C75.3372 60.8785 80.1926 62.6714 81.8104 63.5662C82.7384 64.0797 83.8597 64.6063 84.3022 64.7371C84.7446 64.8679 86.3103 65.6416 87.7814 66.4564C92.1091 68.8534 93.1169 69.345 93.744 69.3649C94.2736 69.382 94.3132 69.2085 94.1118 67.7478C93.8943 66.1689 93.9097 66.1239 94.5465 66.4641C94.9094 66.6582 95.2888 66.9503 95.3895 67.1129C95.4905 67.2758 96.0861 67.5785 96.7136 67.7851C98.0936 68.2397 99.7468 67.7105 99.7468 66.8137C99.7468 66.0368 99.1899 65.6503 97.4945 65.2512C96.1901 64.9443 96.3332 64.9209 98.9424 65.016C101.394 65.1053 102.273 65.3007 104.672 66.2887C107.627 67.5062 108.434 67.6845 108.434 67.1193C108.434 66.3838 106.751 65.2923 105.019 64.9055C102.941 64.4408 102.36 64.1154 99.3395 61.7235C98.0222 60.6799 97.1727 59.7667 97.1727 59.394C97.1727 58.6428 97.0501 58.6425 101.098 59.4052C102.921 59.7491 105.128 60.1311 106.002 60.2542C108.802 60.6494 110.651 63.0197 110.679 66.2511C110.683 66.7369 110.397 67.4239 110.043 67.7773C109.563 68.2567 109.4 68.8483 109.4 70.1069V71.7937L106.423 71.8133C104.787 71.8243 102.361 71.8966 101.034 71.974C99.7066 72.0518 98.1502 71.9952 97.5749 71.8487C96.6006 71.6003 96.5292 71.6373 96.5292 72.3946C96.5292 72.8412 97.3931 77.0099 98.4495 81.6577C99.5055 86.3058 100.463 90.7592 100.578 91.5544C100.692 92.3497 101.35 95.2415 102.039 97.9806C102.729 100.72 103.351 103.216 103.421 103.527C103.611 104.362 102.977 104.584 96.8197 105.844C93.7398 106.475 90.2989 107.294 89.173 107.665C88.0472 108.035 85.8753 108.664 84.3466 109.061C82.8179 109.458 80.7708 110.104 79.7975 110.496C78.8241 110.889 75.9408 111.931 73.3905 112.813C70.8399 113.694 67.4655 114.994 65.8924 115.701L63.0316 116.988L59.7506 115.409C57.9462 114.54 55.5284 113.417 54.3781 112.914C53.2278 112.41 51.9247 111.763 51.4822 111.475C50.4909 110.831 45.9756 108.835 45.8324 108.978C45.7751 109.035 46.084 111.102 46.519 113.572C49.1797 128.68 49.6051 136.289 47.8913 138.126C47.3096 138.75 46.9216 138.787 41.0928 138.782C34.2148 138.777 33.6317 138.642 32.7594 136.85C31.8215 134.924 31.715 133.278 32.4473 132.023C33.5944 130.058 36.3741 122.091 36.814 119.509C36.9192 118.89 37.7928 115.837 38.7549 112.723C39.7173 109.61 40.4441 106.791 40.3704 106.458C40.0654 105.081 39.9145 101.778 39.7012 91.7973L39.4759 81.2763L38.4807 80.6976C37.9334 80.3795 36.5443 79.7854 35.394 79.3773C32.3286 78.2903 27.3824 75.0888 24.2565 72.1681C20.0658 68.2529 17.8711 65.175 14.7793 58.8777C12.9381 55.1279 11.8963 53.3463 11.5375 53.335C10.7739 53.3109 10.6185 53.976 10.6156 57.2807C10.6118 61.8308 9.72339 72.8897 9.16319 75.3606C8.8868 76.5797 8.38967 78.4449 8.05858 79.5052C7.67825 80.724 7.38802 82.9108 7.27026 85.4495C7.16794 87.6585 6.91535 91.5624 6.70942 94.1249C6.16146 100.937 5.77985 100.501 13.4143 101.776C25.1784 103.74 28.2467 104.376 32.2472 105.675C36.2383 106.972 37.2757 107.562 36.8307 108.281C36.5582 108.721 35.5324 108.551 32.0155 107.485C23.8253 105.003 13.6347 102.8 10.336 102.8C8.60236 102.8 7.54376 103.409 7.32946 104.527C7.24741 104.957 7.29085 108.178 7.42599 111.686C7.62902 116.947 7.84557 118.877 8.66414 122.722C9.20985 125.284 9.87268 128.021 10.1372 128.803C10.4017 129.586 10.6182 130.624 10.6182 131.11C10.6182 132.293 9.1381 137.763 8.66382 138.334C8.37519 138.681 7.31723 138.787 4.14368 138.787C1.59563 138.787 0 138.911 0 139.109C0 139.308 1.75587 139.43 4.62375 139.43H9.2475L9.64841 137.904C9.86914 137.064 10.3222 135.422 10.6555 134.254C11.4484 131.477 11.4323 131.137 10.2964 126.738C8.65223 120.37 8.02994 116.201 7.82112 110.149L7.62548 104.485L8.51516 103.903C10.3405 102.709 17.7269 104.021 31.2111 107.936C32.3614 108.27 34.2074 108.643 35.3136 108.766C37.2915 108.985 37.3246 108.975 37.3246 108.205C37.3246 107.774 37.1435 107.194 36.9224 106.915C35.9066 105.636 25.2662 103.051 11.812 100.816C7.64704 100.124 7.3626 100.031 7.17727 99.2922C6.88768 98.1397 7.74969 83.662 8.23137 81.5938C8.45757 80.6218 9.011 78.3607 9.46115 76.5691C10.0831 74.094 10.3978 71.5242 10.7707 65.8723C11.0407 61.781 11.2617 57.4995 11.2617 56.3579C11.2617 53.6602 11.8184 53.638 12.8252 56.2953C13.6528 58.4789 17.1883 65.0484 18.4528 66.7527C20.22 69.1333 24.3437 73.3354 26.4262 74.8767C29.5447 77.1854 33.6259 79.5839 34.8448 79.8246C35.4124 79.9364 36.5646 80.3422 37.4051 80.7262L38.9334 81.4241L38.9553 88.9794C38.9672 93.1349 39.1529 98.9709 39.3675 101.948C39.6635 106.051 39.6683 107.646 39.3878 108.535C38.1284 112.525 37.0309 116.289 36.8433 117.259C36.4671 119.205 34.4355 125.673 33.4116 128.184C32.8711 129.509 32.2752 131.064 32.0876 131.638C31.6976 132.833 31.2211 132.965 30.6422 132.04C30.112 131.192 29.3957 131.225 28.915 132.12C28.1286 133.584 26.6977 138.907 27.0073 139.216C27.3364 139.545 28.452 138.391 30.026 136.094C30.5245 135.366 31.0943 134.771 31.2919 134.771C31.4898 134.771 31.8331 135.481 32.0548 136.348C32.7961 139.25 32.8074 139.254 40.6346 139.372L47.4673 139.474L48.2147 138.68C48.6256 138.243 49.0912 137.329 49.2492 136.65C49.9909 133.457 49.2643 124.984 47.4621 115.813C46.4395 110.61 46.3881 110.004 46.9782 110.136C47.2404 110.194 48.7228 110.871 50.273 111.641C51.823 112.41 53.417 113.134 53.815 113.25C54.2134 113.366 56.4413 114.419 58.766 115.589L62.993 117.716L65.523 116.569C68.4463 115.243 71.4181 114.069 74.1666 113.153C75.2284 112.799 78.6108 111.626 81.683 110.547C84.7552 109.467 87.5838 108.584 87.9687 108.584C88.3535 108.584 89.4597 108.312 90.4269 107.981C91.3942 107.649 94.6234 106.903 97.6029 106.323C100.65 105.729 103.299 105.042 103.658 104.753C104.288 104.243 104.274 104.152 102.504 97.1054C101.519 93.1825 100.577 89.0639 100.411 87.9522C100.245 86.8408 99.539 83.4011 98.8414 80.3085C98.1441 77.2159 97.4851 74.2071 97.3774 73.6223L97.1811 72.5588L98.5466 72.7635C99.2976 72.8759 101.432 72.7477 103.288 72.4785C105.638 72.1379 107.105 72.0771 108.113 72.2789C108.909 72.4386 109.669 72.5752 109.802 72.5829C109.935 72.5906 110.051 71.6935 110.061 70.5888L110.079 68.5806L110.702 70.9558C111.044 72.2622 111.579 73.7383 111.891 74.2364C112.202 74.7344 113.078 76.1597 113.838 77.4038C115.219 79.6643 115.688 80.0055 116.414 79.2803C116.658 79.0371 116.912 79.0075 117.102 79.2C117.409 79.5094 119.513 88.5023 120.106 92.0364C120.396 93.765 120.479 102.109 120.262 107.62C120.181 109.662 120.198 109.711 121.028 109.807C121.791 109.895 122.025 110.285 123.343 113.663C124.149 115.729 124.966 118.215 125.158 119.187C125.643 121.635 127.572 128.303 128.533 130.854C128.972 132.018 129.623 133.835 129.979 134.891C130.945 137.755 132.275 139.828 133.551 140.459C135.709 141.525 135.746 141.421 134.982 136.354C133.77 128.313 132.511 121.541 131.433 117.259C130.058 111.798 129.823 110.511 130.199 110.514C130.351 110.515 131.331 110.655 132.377 110.826C133.613 111.029 135.063 111.026 136.522 110.82C138.651 110.518 144.236 108.948 147.368 107.769C148.815 107.225 148.816 107.225 150.158 108.106L151.501 108.987L151.534 114.237C151.553 117.125 151.781 121.698 152.041 124.399C152.301 127.099 152.515 131.376 152.515 133.903C152.516 137.372 152.635 138.728 153.002 139.436C153.545 140.484 154.62 141.214 154.917 140.735C155.02 140.569 154.876 138.725 154.596 136.638C153.568 128.954 153.458 127.265 153.03 112.591C152.968 110.436 152.795 109.46 152.361 108.799C151.618 107.667 152.123 106.975 152.992 107.934C153.659 108.67 154.532 108.777 155.018 108.182C155.556 107.524 156.16 100.709 155.961 97.5462C155.639 92.4181 154.217 86.683 151.346 78.9278C150.574 76.8432 149.942 74.5856 149.942 73.9112C149.942 73.2371 150.329 70.8944 150.801 68.7053C151.6 65.0047 151.662 64.1488 151.686 56.5314C151.706 50.1489 151.588 47.5922 151.151 44.9642C149.838 37.0725 148.742 34.6684 145.298 32.1275C143.041 30.4631 143.033 30.4384 141.44 20.5445C140.835 16.7868 139.25 10.7223 138.417 8.9773C138.038 8.18206 137.218 6.88074 136.595 6.0855C135.972 5.29025 135.288 4.29997 135.074 3.88483C134.861 3.46938 133.611 2.42126 132.295 1.55532C130.273 0.223809 129.674 -0.0162115 128.42 0.000818036C127.604 0.0120639 126.598 0.156654 126.184 0.32213ZM131.469 1.75165C132.58 2.3721 133.794 3.27595 134.165 3.75984C136.884 7.29877 137.496 8.19941 138.036 9.45831C138.937 11.5574 140.846 19.6253 141.237 22.9855C141.424 24.5934 141.867 27.0386 142.22 28.4189C142.574 29.7996 142.863 30.9422 142.863 30.9582C142.863 30.974 142.031 30.9936 141.013 31.0013C137.844 31.0251 136.775 31.5324 133.75 34.4438C131.91 36.2155 130.672 37.7302 130.01 39.0199C129.466 40.0803 128.747 41.3093 128.412 41.7511C127.043 43.5588 125.247 46.5277 125.051 47.3079C124.935 47.7661 123.962 49.9201 122.887 52.0951C121.813 54.27 120.738 56.5555 120.498 57.1741L120.063 58.2987L120.045 57.0134C120.012 54.6643 120.969 51.6883 123.079 47.5742C124.227 45.3353 125.166 43.2735 125.166 42.992C125.166 42.7105 125.449 42.1209 125.796 41.6817C126.683 40.5542 129.347 34.2404 129.874 32.0154C130.484 29.4368 130.536 27.0132 130.059 23.4363C129.259 17.4336 128.474 16.1001 124.165 13.4214C121.706 11.8935 120.803 11.1346 120.248 10.1298C119.381 8.55896 118.74 8.37709 117.409 9.32304C115.228 10.8746 114.987 13.5444 116.606 18.2443C117.73 21.5043 120.144 25.6248 121.625 26.8101C122.067 27.1635 122.829 27.8142 123.317 28.256L124.205 29.0593L122.755 33.2363C121.958 35.5337 121.305 37.7302 121.305 38.1174C121.305 38.5046 121.187 38.8946 121.041 38.984C120.897 39.0733 120.62 37.3106 120.426 35.0669C120.051 30.7182 119.177 27.4643 116.786 21.5085C115.247 17.6768 114.686 14.0126 115.202 11.168C115.401 10.071 115.763 8.89119 116.005 8.54546C116.799 7.4138 124.663 1.58938 126.292 0.925875C127.729 0.340766 129.428 0.611632 131.469 1.75165ZM47.8289 11.0796C50.4529 13.3369 51.5398 15.5539 51.5884 18.7487C51.6087 20.0703 51.5527 21.2238 51.4642 21.3121C51.0459 21.7298 45.2638 22.18 42.8377 21.9837C40.6517 21.807 40.1722 21.8474 40.2881 22.1996C40.5715 23.0617 42.8528 23.4636 47.4788 23.4665L52.0289 23.4694L54.4907 26.0386C55.8444 27.4514 56.9522 28.7161 56.9522 28.8488C56.9522 28.9812 55.9808 29.0281 54.7935 28.9526C53.4649 28.8681 51.498 29.0384 49.6791 29.3954C46.8646 29.948 46.6538 29.9493 45.2619 29.4182C43.3291 28.6811 41.4847 26.99 39.6165 24.2412L38.0888 21.9936L35.6955 21.3494C33.3582 20.7203 33.2855 20.6698 32.5725 19.1789C31.9116 17.7976 31.7378 17.6527 30.7413 17.6527C30.1358 17.6527 29.5579 17.5197 29.4572 17.3571C29.2934 17.0924 30.6795 14.2439 31.7073 12.7338C32.3971 11.7197 34.1569 10.6147 35.8484 10.1334C38.4012 9.40722 38.8704 9.35645 42.5198 9.40947L45.9453 9.45927L47.8289 11.0796ZM37.1991 22.3644C37.5814 22.6144 38.407 23.5726 39.0338 24.4931C41.5043 28.1207 44.6827 30.4936 47.0824 30.502L47.9917 30.5052L47.2433 31.4939C44.537 35.0685 40.845 37.8954 38.8836 37.8954C37.2628 37.8954 33.0828 32.0703 32.5194 29.0265C32.3212 27.9559 31.8849 26.8628 31.4865 26.4396C30.566 25.4612 30.2754 22.7931 31.0219 22.1745C31.465 21.8073 31.6342 21.8217 32.1272 22.2674C32.9004 22.9659 33.1417 22.9309 33.1417 22.1209C33.1417 21.4943 33.2575 21.4641 34.8232 21.6791C35.748 21.806 36.8172 22.1145 37.1991 22.3644ZM47.0641 23.0045C46.8463 23.0925 46.4119 23.098 46.0988 23.0164C45.7857 22.9348 45.964 22.8628 46.4949 22.8564C47.0258 22.8499 47.2819 22.9164 47.0641 23.0045ZM127.21 27.1227C127.396 27.6076 126.32 28.5773 125.596 28.5773C124.977 28.5773 124.784 28.006 125.163 27.2988C125.568 26.5421 126.941 26.4239 127.21 27.1227ZM143.675 32.1921C144.868 33.852 147.412 38.4975 148.189 40.4366C149.162 42.8641 149.948 48.1548 149.888 51.8724C149.864 53.2862 149.789 54.0091 149.72 53.479C148.999 47.9254 147.407 43.0723 145.43 40.399C143.487 37.7713 141.418 37.2592 138.985 38.8031C137.076 40.0138 135.56 41.7935 135.176 43.2732C134.421 46.1858 133.235 52.0321 133.04 53.8003C132.924 54.8606 132.403 56.8129 131.884 58.1386C131.365 59.4647 130.917 60.9106 130.89 61.3518C130.773 63.2375 130.983 65.2069 131.303 65.2069C131.531 65.2069 131.576 64.6352 131.436 63.5113C131.27 62.1904 131.377 61.3919 131.919 59.8965C133.098 56.6417 133.51 54.9429 134.362 49.8157C135.517 42.8689 135.965 41.8311 138.686 39.7888C140.495 38.4316 141.649 38.2266 143.142 38.9975C146.1 40.525 149.386 49.8594 149.428 56.8527C149.448 60.1931 149.437 60.2217 145.494 66.656C142.204 72.027 136.56 77.3826 133.609 77.9356C131.799 78.2746 123.133 77.5465 121.997 76.9598C121.367 76.6346 120.868 75.9987 120.531 75.0939C120.25 74.3392 119.675 72.7876 119.253 71.6459C118.831 70.5043 118.343 69.5224 118.167 69.4639C117.362 69.1959 117.186 73.2875 117.926 75.0563C118.648 76.7799 118.524 77.1741 116.965 78.1184L115.542 78.9809L114.243 76.8332C112.244 73.5259 111.352 71.5563 111.133 69.9645C110.936 68.5257 110.944 68.5087 111.856 68.5311C112.363 68.5437 115.167 68.3123 118.087 68.017C126.61 67.1553 130.714 66.8137 132.586 66.8099C135.398 66.8041 136.75 66.4908 136.75 65.845C136.75 65.1452 135.822 64.8827 133.532 64.9337L131.762 64.9736L133.779 65.2024C134.887 65.3283 135.873 65.5089 135.967 65.604C136.062 65.6988 134.359 65.8729 132.182 65.9912C130.004 66.1094 127.499 66.3324 126.614 66.4873C125.729 66.6418 123.557 66.861 121.788 66.9737C120.018 67.0868 117.074 67.3876 115.246 67.6421C113.418 67.8966 111.789 68.0225 111.626 67.9223C111.464 67.8217 111.327 67.0611 111.323 66.2322C111.316 64.5951 110.404 62.2588 109.324 61.1101C108.673 60.4177 108.67 60.3875 109.263 60.3914C110.091 60.3968 113.919 61.6059 114.418 62.0191C114.635 62.1997 114.908 63.0338 115.024 63.8728C115.561 67.7716 116.334 66.4314 116.573 61.1905C116.81 55.9531 117.802 52.6567 121.309 45.4462C123.053 41.8613 123.577 40.3714 123.781 38.422C123.954 36.7688 124.205 36.1889 125.46 34.5367L126.936 32.5944L127.041 33.8793C127.281 36.7936 126.515 39.0595 122.587 47.0527C120.687 50.9194 120.287 52.0475 119.735 55.0855C118.888 59.7561 118.589 62.9577 119.002 62.9577C119.331 62.9577 119.698 61.9921 120.346 59.4232C120.547 58.628 121.634 56.1391 122.762 53.8925C123.89 51.6459 124.965 49.2438 125.151 48.5546C125.337 47.8653 125.819 46.8118 126.222 46.2132C126.626 45.6145 128.015 43.3898 129.311 41.2691C131.776 37.2344 134.629 33.9648 137.054 32.3951C138.296 31.5909 138.792 31.4691 140.82 31.4691C142.873 31.4691 143.218 31.5565 143.675 32.1921ZM27.403 32.9587C28.8568 34.3388 29.8159 36.2204 30.1895 38.4255C30.4556 39.998 30.8308 40.8042 32.0258 42.3735C32.8518 43.4579 34.0272 44.7374 34.6382 45.2171C35.2492 45.6965 36.2744 46.9563 36.916 48.0167C37.5579 49.077 38.3282 50.2659 38.6281 50.6588C39.5149 51.8207 41.3637 57.0404 42.4156 61.3511C42.9542 63.5601 43.4941 65.6567 43.6151 66.0101C43.7428 66.3845 43.3825 66.1297 42.7515 65.3996C42.1559 64.7108 40.5464 63.0081 39.1748 61.6165C37.285 59.6992 36.6811 58.8728 36.6811 58.2042C36.6811 57.691 35.8394 55.9283 34.6701 53.9931C33.5642 52.1619 32.2617 49.9237 31.7758 49.0192C31.2899 48.1144 29.9504 46.2205 28.7995 44.8109C27.6482 43.4014 26.7064 42.1408 26.7064 42.0098C26.7064 41.6107 23.2066 39.162 21.6589 38.4782C20.7078 38.0583 19.7154 37.8748 18.7901 37.9484C18.012 38.0101 17.3753 37.9709 17.3753 37.861C17.3753 37.7514 17.957 37.2588 18.6678 36.7669C19.3789 36.275 20.4771 35.2792 21.1087 34.5544C23.7021 31.5771 23.5087 31.7091 25.0281 31.8801C25.9898 31.9884 26.7399 32.329 27.403 32.9587ZM147.487 35.1645C149.212 37.2781 149.592 38.7102 150.606 46.8921C151.508 54.1724 151.376 62.5011 150.274 67.938C149.119 73.631 149.228 75.1958 151.135 80.3085C154.248 88.6523 155.412 93.8849 155.412 99.5281C155.412 102.271 154.895 107.477 154.571 108.001C154.34 108.374 153.238 107.723 152.838 106.977C152.559 106.457 152.591 106.384 153.024 106.549C154.314 107.044 154.797 104.547 154.466 99.1052C154.146 93.8524 152.83 87.5261 151.052 82.6942C150.407 80.9402 149.694 78.7823 149.467 77.8987C149.24 77.0151 148.809 75.689 148.509 74.9522C147.988 73.6766 147.993 73.4601 148.601 70.4539C148.952 68.7165 149.331 66.2832 149.444 65.0462C149.556 63.8091 149.879 61.3624 150.162 59.609C150.545 57.2268 150.628 55.2366 150.488 51.7368C150.192 44.3193 149.063 39.6198 146.699 35.9675C146.04 34.9499 145.331 33.7993 145.123 33.4115C144.439 32.1346 145.899 33.2171 147.487 35.1645ZM66.6151 41.6717C66.6206 41.9805 66.7573 43.2487 66.9189 44.4903C67.2622 47.1263 66.9205 50.2491 66.2113 50.9573C65.7634 51.4046 65.5761 51.3905 64.3097 50.8131C62.3534 49.9214 61.0319 48.5947 61.2439 47.7352C61.3366 47.3599 61.5634 46.4744 61.7488 45.7675C61.9338 45.0606 62.0885 43.8197 62.0927 43.0097C62.0969 42.1997 62.1613 41.4767 62.2359 41.4031C62.3106 41.3295 63.3241 41.2335 64.4883 41.1898C66.3156 41.1213 66.6064 41.1872 66.6151 41.6717ZM70.8592 47.856C71.2788 48.6513 72.4844 50.7141 73.5379 52.4402C74.5916 54.1663 75.7915 56.1905 76.2043 56.9385C76.6171 57.6866 77.3196 58.778 77.7652 59.3641C78.2108 59.9499 78.5246 60.4797 78.4625 60.5411C78.4004 60.6025 77.5001 60.4823 76.4621 60.2744L74.5746 59.8962L73.8442 57.9728C73.1588 56.1674 71.6028 52.4376 70.6291 50.2659C69.9319 48.7101 68.8578 45.7938 68.8578 45.4552C68.8575 44.9057 70.0705 46.3613 70.8592 47.856ZM68.8694 47.615C69.2729 48.7197 69.797 49.9847 70.0345 50.4265C71.6436 53.4221 75.4643 64.365 76.0924 67.7773C76.3363 69.1028 76.983 72.2664 77.5297 74.808C78.4477 79.0756 80.4938 90.8803 80.8619 94.032C80.9613 94.8835 80.8744 95.5056 80.6273 95.7106C79.801 96.395 73.8651 98.6622 71.3393 99.2579C69.8858 99.6004 66.9591 100.446 64.8354 101.138C62.7118 101.829 59.2367 102.777 57.1131 103.245C54.9895 103.713 51.0076 104.835 48.2646 105.739C45.5216 106.644 43.0601 107.449 42.7946 107.528C41.8203 107.82 43.6344 106.586 45.7835 105.495C46.9849 104.885 47.8913 104.262 47.7977 104.111C47.7038 103.96 47.4071 102.791 47.1381 101.514C45.8044 95.182 45.9469 83.6058 47.4274 78.0439C47.8917 76.2992 48.4577 74.87 48.7572 74.6855C49.0442 74.5088 50.1443 73.8058 51.2023 73.123C52.2599 72.4402 53.1863 71.9425 53.2606 72.0167C53.3349 72.091 53.0412 72.6728 52.6078 73.3097C51.0858 75.5463 50.3876 80.6941 50.8332 86.3929C51.6721 97.1221 52.1473 100.895 52.8285 102.238C53.2484 103.066 53.8475 102.958 58.4246 101.233C60.7117 100.371 63.4519 99.4982 64.5137 99.2926C65.5755 99.0872 66.766 98.8511 67.1589 98.7675C68.4624 98.4906 68.518 97.7355 67.5264 93.8036C66.3065 88.9672 65.6534 84.1617 65.6482 79.9872C65.6463 78.1316 65.4091 74.3135 65.1218 71.5023L64.5993 66.3909L65.3609 65.799C66.7609 64.7108 67.361 65.1195 67.7931 67.456C68.4617 71.0701 70.1227 82.8125 70.7791 88.5665C71.327 93.3698 71.9963 96.3741 72.5182 96.3741C72.903 96.3741 77.7832 95.7 78.43 95.5573C79.3988 95.344 79.3753 94.6104 78.2079 88.5736C76.7069 80.8133 76.3179 78.4051 76.0943 75.4888C75.9791 73.9867 75.6187 71.3841 75.2937 69.7052C74.9684 68.0264 74.5154 65.3878 74.2866 63.8413C74.0578 62.2951 73.7924 61.032 73.6968 61.0346C73.6013 61.0372 72.4008 61.6017 71.0294 62.289C69.5168 63.047 68.5357 63.3831 68.5357 63.1431C68.5357 62.9252 68.8887 61.8793 69.3202 60.819C69.752 59.7584 70.2794 57.6448 70.4927 56.1221C70.9393 52.9353 70.7639 52.2503 68.881 49.8212C67.908 48.5661 67.7464 48.1282 67.8301 46.9724C67.8848 46.2212 67.9755 45.6068 68.0325 45.6068C68.0891 45.6068 68.4656 46.5107 68.8694 47.615ZM69.7259 52.3345C70.4676 54.049 69.9415 57.5076 68.2864 61.7993C67.4163 64.0559 66.2692 65.203 64.8802 65.2056C64.3644 65.2065 64.311 65.0391 64.494 64.0019C64.6115 63.3394 65.0465 61.7126 65.4616 60.3872C65.8763 59.0618 66.5405 56.5314 66.9372 54.7642C67.3343 52.997 67.7947 51.1896 67.9604 50.7478C68.258 49.9555 68.2687 49.9532 68.7548 50.5872C69.0261 50.9406 69.463 51.7269 69.7259 52.3345ZM66.2824 55.0907C65.8995 56.98 65.2335 59.4608 64.8026 60.6041C64.3718 61.7473 63.9133 63.4152 63.7836 64.3107L63.5484 65.9385L59.6975 67.966C57.5793 69.0809 55.8006 69.9478 55.7446 69.8916C55.5747 69.7222 57.8152 65.2017 59.3407 62.6364C60.1287 61.3109 61.101 59.5139 61.5013 58.6428C62.5364 56.3904 66.451 51.1295 66.8188 51.4965C66.9066 51.5845 66.6653 53.2017 66.2824 55.0907ZM63.5706 52.1822L64.6984 52.6529L63.1188 54.833C62.2501 56.0321 61.4305 57.3633 61.298 57.7913C61.1654 58.219 60.5756 59.3204 59.9871 60.2391C59.3986 61.1577 57.9539 63.8079 56.7762 66.1287L54.6355 70.3485L51.8877 71.9634C50.3763 72.8515 49.0722 73.5105 48.9892 73.4279C48.9065 73.345 49.506 71.9261 50.3213 70.2743C51.1367 68.6224 51.804 67.1675 51.804 67.0412C51.804 66.9149 52.8346 65.2586 54.0943 63.3603C55.3537 61.462 56.5088 59.6189 56.661 59.2645C56.8132 58.9101 57.4381 57.8247 58.0498 56.8527C58.6618 55.8808 59.6074 54.3263 60.1515 53.3986C61.2349 51.5511 61.6789 51.393 63.5706 52.1822ZM93.8186 58.2183C96.4948 61.0632 96.5157 61.1995 94.0452 59.7044C91.9344 58.4272 91.3189 57.6644 91.9173 57.0671C92.2919 56.6927 92.5052 56.8222 93.8186 58.2183ZM90.7374 61.0298C90.7374 62.2669 90.6615 63.279 90.5685 63.279C90.1341 63.279 89.7696 61.4266 89.9578 60.1745C90.2805 58.0236 90.7374 58.5245 90.7374 61.0298ZM96.0285 61.658C97.6274 62.9268 98.4482 62.9962 97.6605 61.7958C97.1183 60.9697 97.1331 60.9726 98.5084 61.9635C99.278 62.5181 100.487 63.4213 101.195 63.9708C102.438 64.9357 102.449 64.9604 101.517 64.6944C100.986 64.5427 99.4653 64.4151 98.138 64.411C96.2071 64.4052 95.7248 64.4996 95.7248 64.8843C95.7248 65.1622 96.2673 65.5378 97.0118 65.7753C99.3137 66.5095 99.2217 66.4442 98.7555 67.0056C98.471 67.3474 98.0376 67.4522 97.4173 67.3282C96.2242 67.0897 94.2768 65.6001 94.2768 64.9254C94.2768 64.6359 93.6253 64.0058 92.8289 63.5254C91.4315 62.6826 91.381 62.5978 91.381 61.0912C91.381 60.2326 91.4656 59.4461 91.5686 59.3429C91.834 59.0782 94.5619 60.4942 96.0285 61.658ZM148.667 66.5255C148.302 68.5395 147.841 70.9934 147.642 71.9785C147.304 73.6528 147.344 73.9366 148.252 76.3162C149.653 79.9862 151.771 86.772 152.518 89.9803C153.992 96.3137 154.535 102.816 153.772 105.002C153.377 106.131 153.108 106.243 152.51 105.524C152.27 105.235 151.852 105.115 151.49 105.229C151.151 105.337 150.515 105.188 150.072 104.898C149.157 104.3 148.728 104.389 145.92 105.76C144.858 106.279 142.903 107.163 141.576 107.724L139.163 108.745L122.431 108.721L122.184 105.038C121.641 96.9261 120.968 89.9765 120.49 87.538C119.651 83.2623 118.992 80.5283 118.518 79.3626C118.124 78.3932 118.129 78.2222 118.56 77.9812C119.19 77.6294 119.187 76.5312 118.553 75.0159C118.278 74.3591 118.097 73.2258 118.151 72.4974L118.248 71.1733L119.564 74.2145C120.502 76.3811 121.11 77.3688 121.68 77.6484C122.119 77.864 124.793 78.2161 127.62 78.4308C133.802 78.9002 134.719 78.7199 137.776 76.4341C140.974 74.042 146.597 66.9243 148.564 62.7777C149.421 60.9713 149.455 62.1823 148.667 66.5255ZM73.6547 64.0019C74.9909 71.4342 75.6712 75.7038 76.0936 79.3153C76.3601 81.5905 77.0126 85.8171 77.5438 88.7079C78.0754 91.5991 78.5101 94.1982 78.5101 94.4838C78.5104 94.8944 77.929 95.0782 75.7346 95.361C74.2078 95.5579 72.8486 95.6511 72.7145 95.5682C72.1903 95.2447 71.4178 91.1971 71.1208 87.2167C70.8087 83.0364 70.1433 78.0718 68.7375 69.4405L67.9878 64.8377L68.6641 64.4251C70.2395 63.4631 72.8953 62.0072 73.0864 62.0008C73.2003 61.9969 73.4558 62.8976 73.6547 64.0019ZM43.9797 64.3033C43.877 64.5594 43.8008 64.4833 43.7853 64.1089C43.7715 63.7703 43.8474 63.5807 43.9542 63.6874C44.0611 63.794 44.0727 64.0713 43.9797 64.3033ZM92.7407 64.2416C93.3682 64.6237 93.5809 64.8836 93.2668 64.8843C92.9766 64.8849 92.3974 64.6012 91.9798 64.2535C90.9923 63.4323 91.4006 63.4258 92.7407 64.2416ZM105.86 65.6888C106.911 66.2887 106.543 66.2955 105.173 65.7014C104.578 65.4433 104.308 65.2316 104.573 65.2309C104.839 65.2303 105.418 65.4363 105.86 65.6888ZM64.1575 68.179C64.5372 70.7761 64.986 77.2679 64.9963 80.3085C65.0057 83.075 66.1077 90.3836 67.3024 95.6017C67.5087 96.5023 67.5901 97.4666 67.4832 97.7442C67.3574 98.0716 66.4047 98.4327 64.7753 98.7711C61.2947 99.494 60.1068 99.85 56.8982 101.132C55.364 101.745 53.8971 102.165 53.6381 102.066C52.3536 101.574 50.8677 85.7859 51.4909 79.2533C51.784 76.1813 51.8912 75.8413 53.3034 73.5089C54.6091 71.3516 55.0168 70.933 56.4406 70.2871C57.3406 69.8787 59.2355 68.9379 60.6519 68.1967C62.0679 67.4554 63.391 66.8407 63.5921 66.8311C63.7936 66.8214 64.0478 67.4278 64.1575 68.179ZM121.622 106.897C121.626 108.713 121.525 109.227 121.163 109.227C120.37 109.227 120.281 108.654 120.687 106.146C121.162 103.203 121.615 103.566 121.622 106.897ZM150.378 105.837C150.846 106.271 151.229 106.921 151.229 107.283C151.229 108.098 150.97 108.101 149.942 107.299C148.866 106.458 148.393 106.493 146.015 107.591C141.663 109.599 134.884 110.703 130.988 110.038L129.571 109.796L129.774 111.841C129.886 112.965 130.488 115.982 131.113 118.545C131.738 121.107 132.542 125.083 132.899 127.381C133.256 129.678 133.932 133.472 134.401 135.813C134.87 138.153 135.162 140.158 135.051 140.269C134.572 140.747 132.673 139.141 131.793 137.514C130.269 134.697 127.132 125.059 124.99 116.617C124.744 115.645 124.111 113.673 123.584 112.235C123.057 110.798 122.715 109.532 122.825 109.423C122.934 109.313 126.076 109.314 129.806 109.424C136.03 109.609 136.818 109.569 139.365 108.944C140.892 108.57 143.643 107.543 145.479 106.662C147.314 105.78 148.976 105.057 149.171 105.054C149.366 105.051 149.91 105.404 150.378 105.837ZM152.433 116.844C152.371 118.045 152.32 117.147 152.32 114.85C152.319 112.552 152.37 111.57 152.432 112.667C152.495 113.764 152.495 115.644 152.433 116.844ZM152.739 123.599C152.657 123.912 152.585 123.734 152.579 123.204C152.572 122.673 152.639 122.418 152.727 122.635C152.815 122.853 152.821 123.287 152.739 123.599ZM30.5032 132.747C30.7156 132.959 30.8893 133.304 30.8893 133.515C30.8893 133.978 28.006 137.943 27.811 137.748C27.6736 137.611 29.0627 133.294 29.4411 132.683C29.7046 132.257 30.0325 132.277 30.5032 132.747ZM153.932 135.599C154.215 137.115 154.442 138.778 154.436 139.294L154.425 140.233L153.793 139.475C153.26 138.837 153.16 138.228 153.16 135.646C153.16 133.957 153.218 132.635 153.289 132.709C153.359 132.783 153.649 134.083 153.932 135.599Z" fill="black"/>
</svg>
