<svg width="185" height="136" viewBox="0 0 185 136" fill="none" xmlns="http://www.w3.org/2000/svg">
<path id="RIDER" fill-rule="evenodd" clip-rule="evenodd" d="M78.8376 0.0582166C78.1631 0.132465 77.296 0.327762 76.9106 0.492093C76.5252 0.656424 75.5319 1.07517 74.7036 1.42213C73.0141 2.13013 70.3082 4.96071 69.51 6.85457C67.8615 10.7658 68.2256 13.7512 70.6431 16.1465C72.8992 18.382 74.5897 19.7467 75.9842 20.4578C76.6863 20.8157 77.3398 21.1887 77.4361 21.2865C77.5325 21.3843 78.1631 21.6553 78.8376 21.8882C80.3705 22.4178 85.2883 22.8549 84.2684 22.3707C83.8829 22.1877 82.9818 22.0269 82.2656 22.0132C81.5495 21.9998 80.367 21.7292 79.6378 21.4121C76.5584 20.0739 74.5007 18.9356 73.4622 17.9964C72.8536 17.4457 72.0352 16.7331 71.6438 16.4129C70.1558 15.1961 69.3765 13.3926 69.3972 11.2145C69.421 8.67875 70.2388 6.56356 72.039 4.37904C74.3297 1.59913 76.6776 0.699355 81.6406 0.699355C84.988 0.699355 85.4964 0.789438 87.283 1.69907C89.6395 2.89865 91.6924 4.82629 92.7649 6.84647C94.0321 9.23368 93.9558 9.32059 90.5873 9.32059C88.0629 9.32059 87.5699 9.41736 87.2756 9.97018C86.8338 10.7989 87.1326 14.5648 87.6939 15.2443C87.9336 15.5342 88.1207 16.7767 88.1214 18.0826C88.1224 20.0225 87.9928 20.5352 87.3341 21.1968C86.9003 21.6321 86.2697 21.9987 85.9326 22.0107C85.4968 22.0265 85.5724 22.1398 86.1954 22.4027C86.845 22.6768 86.9354 22.8211 86.5458 22.9604C86.2567 23.0639 85.5759 23.6097 85.0332 24.1734C84.4905 24.7371 83.9387 25.1492 83.8069 25.089C83.6752 25.0288 82.3851 24.4021 80.9398 23.6962C78.2161 22.3658 74.3683 21.4892 72.93 21.8714L72.1028 22.0909L72.3214 28.4495C72.4416 31.9466 72.6851 35.2885 72.862 35.8758C73.039 36.4631 73.3764 38.0522 73.6118 39.407C74.0543 41.9525 74.1076 42.1137 75.1654 44.1324C76.0847 45.8863 80.2419 49.7876 81.1914 49.7876C81.3866 49.7876 81.9387 50.098 82.4187 50.477C83.0925 51.0094 83.336 51.5998 83.487 53.069C83.5946 54.1155 84.0343 55.7451 84.4646 56.6902C84.8945 57.6354 85.5973 59.4381 86.0262 60.6961C86.455 61.9541 87.2185 64.0859 87.7227 65.4332C88.2927 66.9569 88.5152 68.008 88.3113 68.2128C88.1305 68.3944 87.3835 68.659 86.6512 68.8015L85.3195 69.0605L86.955 69.101C88.977 69.1509 89.6991 69.4134 89.6991 70.0975C89.6991 70.7777 91.8122 74.7716 92.172 74.7716C92.322 74.7716 92.7337 74.8638 93.0865 74.9764C93.4397 75.089 93.3002 74.8972 92.7768 74.5503C92.2533 74.2033 91.6489 73.438 91.4334 72.85C91.2183 72.262 90.8977 71.5058 90.7211 71.1697C89.9938 69.7857 90.3221 69.1963 91.9569 68.95C93.8286 68.6681 106.956 69.0302 108.444 69.4046C109.022 69.5503 110.644 70.2998 112.049 71.0705C114.059 72.1729 114.581 72.6226 114.502 73.1818C114.403 73.8687 114.094 73.8975 105.057 74.0678C99.918 74.1646 95.5952 74.3624 95.4508 74.5077C95.3064 74.653 99.4454 74.7716 104.648 74.7716C109.851 74.7716 114.196 74.86 114.304 74.968C114.411 75.076 114.367 75.5905 114.205 76.1116C113.541 78.2476 112.403 83.6226 111.584 88.4952C111.274 90.3338 110.879 92.6299 110.705 93.5976C110.531 94.5653 110.217 97.0197 110.007 99.0518C109.797 101.084 109.457 103.329 109.25 104.04C108.783 105.649 109.035 106.35 110.248 106.813C111.853 107.426 112.119 106.88 113.509 100.107C113.688 99.2366 114.08 97.4156 114.381 96.0608C114.906 93.6912 115.093 92.6668 115.982 87.2636C116.375 84.8732 116.761 82.7507 117.196 80.5778C117.313 79.9972 117.574 78.572 117.776 77.4108C117.979 76.2495 118.302 75.108 118.493 74.8744C118.995 74.2614 117.617 71.9583 116.139 70.9417C115.437 70.4578 113.809 69.9061 112.217 69.6115C109.39 69.0886 109.09 68.9767 103.889 66.5026C100.136 64.7168 96.4444 63.1593 95.9658 63.1593C95.7763 63.1593 94.969 62.8426 94.1712 62.4556C93.3735 62.0685 92.5473 61.7518 92.3353 61.7518C91.5221 61.7518 89.6091 59.745 89.1448 58.4043C88.8771 57.6326 88.6561 56.2342 88.6533 55.2968C88.649 53.8861 88.7685 53.5609 89.3487 53.4085C90.1704 53.1928 90.2674 52.6647 89.5372 52.3832C89.2555 52.2748 88.9325 51.893 88.8193 51.5351C88.7065 51.1776 87.8264 50.3165 86.8639 49.6222C85.9014 48.9276 84.9849 48.0088 84.8272 47.5806C84.5423 46.8071 84.6121 46.5112 86.1775 41.8339C87.0937 39.0955 87.1207 36.3174 86.2423 35.0626C84.858 33.0842 84.3756 31.8196 84.8065 31.2981C85.1548 30.8769 85.289 30.8807 85.7308 31.3245C86.4848 32.0817 89.2475 33.9527 89.6115 33.9527C89.7832 33.9527 90.5432 34.4728 91.3003 35.1087C93.5511 36.9983 104.128 44.7148 105.615 45.5516C106.371 45.9774 107.869 46.9043 108.943 47.6116C110.017 48.3188 111.526 49.1989 112.295 49.5677C114.202 50.4816 114.639 51.1311 113.869 51.9046C112.762 53.0165 112.005 56.2381 112.237 58.8498C112.381 60.4674 112.344 60.9717 112.122 60.4322C111.942 59.9969 111.643 59.6405 111.457 59.6405C111.271 59.6405 111.03 59.36 110.922 59.0173C110.718 58.3709 107.843 57.495 106.156 57.565C105.445 57.5946 105.51 57.6611 106.517 57.9366C107.191 58.1214 108.137 58.3628 108.619 58.4733C109.52 58.6802 111.072 59.8966 111.072 60.396C111.072 60.5508 111.761 61.8296 112.604 63.2378C113.447 64.6461 114.562 66.5589 115.082 67.4883C115.602 68.4179 116.371 69.3149 116.791 69.4817C117.21 69.6488 117.869 70.2734 118.254 70.8699C119.333 72.5389 119.644 72.4284 121.846 69.5932C123.645 67.2761 123.402 66.9956 120.388 67.9137C117.278 68.8613 117.246 68.8427 115.302 64.9357C112.412 59.1302 112.17 55.4168 114.479 52.3145C115.348 51.1473 115.349 51.147 117.677 51.3683C121.496 51.7315 121.985 51.9109 123.571 53.5257C124.702 54.6782 125.087 55.3471 125.087 56.1614C125.087 57.0664 124.982 57.2075 124.473 56.9894C122.909 56.3169 122.108 56.4228 121.151 57.4282C120.625 57.9817 120.093 58.9409 119.97 59.5599C119.634 61.2472 120.517 61.3799 123.209 60.0466C124.442 59.436 125.567 58.9367 125.71 58.9367C125.853 58.9367 126.599 59.4878 127.368 60.1616C128.137 60.8351 129.032 61.3894 129.358 61.3932C129.684 61.3967 130.048 61.5583 130.167 61.7518C130.502 62.2965 133.074 62.167 133.998 61.5586C135.09 60.8401 135.85 59.049 135.298 58.4947C135.077 58.2734 134.897 57.8948 134.897 57.6537C134.897 55.5185 127.571 47.4476 124.292 45.9707C122.513 45.1691 122.406 45.1614 120.673 45.7078C119.413 46.1051 118.38 46.7888 117.169 48.0289C116.214 49.0054 115.14 49.7809 114.751 49.7739C112.941 49.7408 102.376 43.0764 97.0569 38.6131C95.4771 37.2872 87.6971 31.8414 87.3832 31.8414C87.2514 31.8414 86.4571 31.2766 85.6183 30.5862C83.9968 29.2518 83.768 28.5231 84.6247 27.422C85.1348 26.7668 85.2399 26.8298 87.2108 28.9724C88.518 30.3937 89.3557 31.0588 89.5145 30.8012C89.8137 30.3145 89.4185 26.5416 88.9959 25.8554C88.3772 24.8497 89.2748 24.1759 91.8041 23.7476C93.1604 23.5178 94.4817 23.117 94.741 22.857C95.3818 22.2134 95.7427 16.2285 95.3579 12.6273C94.9736 9.03134 93.7939 6.38726 91.4755 3.9251C88.9763 1.27117 86.6439 0.207416 82.98 0.0494189C81.376 -0.0199029 79.5121 -0.0156797 78.8376 0.0582166ZM89.1735 10.3763C89.2927 10.5698 89.223 10.7281 89.019 10.7281C88.8029 10.7281 88.648 11.5361 88.648 12.6635C88.648 13.728 88.512 14.5989 88.346 14.5989C87.9893 14.5989 87.4932 10.8295 87.7868 10.3523C88.0538 9.91845 88.901 9.93323 89.1735 10.3763ZM94.6211 22.2855L92.7193 22.8408C91.6734 23.1462 90.3687 23.3985 89.8203 23.4014C88.0751 23.4109 87.7917 23.8117 88.2472 25.6274C88.6676 27.3048 88.7773 29.0263 88.4633 29.0263C88.1364 29.0263 85.7869 26.7594 85.4407 26.1098C84.7582 24.8293 86.0906 23.3961 87.9637 23.3961C88.34 23.3961 88.613 23.2771 88.5702 23.1322C88.5271 22.9872 88.7871 22.4249 89.1473 21.883C89.7338 21.0011 89.7818 20.4029 89.6059 16.1827C89.4651 12.8103 89.525 11.3721 89.8168 11.1318C90.3518 10.6908 91.6801 10.4445 93.2028 10.5043L94.4291 10.5522L94.6211 22.2855ZM28.209 17.6343C27.8236 17.7103 26.6411 17.9383 25.5812 18.1403C21.3971 18.9384 19.4774 20.5877 18.4396 24.2758C16.1212 32.5145 15.2775 40.59 15.2593 54.7141L15.2453 65.4466L19.9753 65.909C22.5768 66.1634 30.066 66.4407 36.6179 66.5255C43.1698 66.6103 51.2725 66.7979 54.6242 66.9428L60.7178 67.206L61.565 70.0211C63.0387 74.9166 64.0264 76.8548 65.1731 77.1029C65.6549 77.207 66.4432 77.4192 66.925 77.5748C67.4068 77.7303 68.9046 78.048 70.2535 78.2806C73.8616 78.9031 73.9871 78.9566 73.8651 79.8163C73.7225 80.823 72.7348 80.9409 69.0272 80.3937C65.5638 79.8828 62.813 78.3809 61.62 76.3498L60.8993 75.1235L55.5379 75.2632L58.006 75.3832C60.4288 75.5011 60.4862 75.5261 61.1435 76.7524C61.5121 77.4393 62.202 78.3084 62.6774 78.6839C63.3277 79.1977 63.442 79.4661 63.1389 79.7705C62.8362 80.0746 62.1834 80.0721 60.4985 79.7603C59.2673 79.5327 57.3322 79.3451 56.1984 79.3433C55.0642 79.3419 52.7963 79.1815 51.1583 78.9865C49.5203 78.7916 46.2881 78.4756 43.9757 78.2842C41.6632 78.0927 36.7756 77.6884 33.1142 77.3858C29.4528 77.0832 25.3535 76.7274 24.0046 76.5955L21.552 76.3551L21.5842 72.3633C21.6087 69.342 21.7366 68.2955 22.1097 68.0583C22.7548 67.6484 34.0493 67.6399 35.1197 68.0488C35.9063 68.3493 36.4939 69.3237 38.1476 73.0724C38.8739 74.7181 39.4605 75.3769 39.8508 74.9849C39.9654 74.8701 39.8157 74.4979 39.5183 74.1579C39.2212 73.818 38.3197 72.1634 37.5149 70.4814L36.0521 67.4228L28.977 67.3144C25.0861 67.2546 21.7285 67.2536 21.5159 67.3116C21.2832 67.3753 21.0373 68.9444 20.8975 71.2556C20.7699 73.3665 20.5905 75.2984 20.4991 75.5486C20.1081 76.619 20.9717 76.8963 26.3044 77.4118C29.279 77.6993 33.3756 78.0938 35.4077 78.2884C37.4399 78.483 40.02 78.6424 41.1408 78.6424C42.262 78.6424 45.0927 78.8715 47.4314 79.1516C53.6326 79.894 60.0623 80.4082 63.1067 80.4046C65.3031 80.4022 65.979 80.5429 66.9607 81.2059C68.0798 81.9617 68.1576 82.144 68.2571 84.249C68.3149 85.4806 68.2035 86.6482 68.0087 86.8438C67.7704 87.0831 66.9225 86.4075 65.4128 84.7754L63.1711 82.3516L60.5808 82.0923C59.1562 81.9498 56.0985 81.7601 53.7861 81.6711C49.8069 81.518 49.7414 81.5261 52.5598 81.8224C54.1978 81.9948 57.1528 82.3516 59.1261 82.6152L62.7142 83.0945L64.9468 85.179C67.5374 87.5979 68.4368 89.0378 67.94 89.9707C67.6951 90.4303 67.4425 90.5136 67.0021 90.2814C66.0957 89.8028 57.5074 87.0877 56.9005 87.0877C55.9283 87.0877 56.7415 87.7088 58.0322 87.9519C60.4547 88.4083 58.6927 88.8313 53.7759 88.9734C51.0837 89.0516 48.0926 89.3137 47.129 89.5565C44.6747 90.1748 40.7996 91.7206 39.8599 92.4561C39.0985 93.0522 39.1199 93.0546 40.472 92.5282C41.2428 92.228 42.1888 91.8434 42.5742 91.6738C46.2471 90.0551 49.8528 89.4731 55.3628 89.6096C59.413 89.7099 60.3226 89.8405 61.6926 90.5186C62.5723 90.9542 63.4787 91.3103 63.7072 91.3103C63.9353 91.3103 64.122 91.4532 64.122 91.6277C64.122 91.8023 64.5716 92.1028 65.1209 92.2949C66.6394 92.8266 72.834 98.1911 75.3616 101.163C76.5959 102.615 77.8793 104.006 78.2132 104.256C78.9287 104.791 81.0716 108.373 81.375 109.542C81.6945 110.773 80.8021 110.882 78.7276 109.867C77.7283 109.378 76.4141 108.771 75.8076 108.519C74.9695 108.171 74.4033 107.465 73.4496 105.58C71.5432 101.811 67.796 98.0715 64.8228 96.9715C64.1483 96.7216 63.2811 96.3761 62.8957 96.2033C61.5899 95.6174 57.0792 94.8292 55.0324 94.8292C51.3086 94.8292 46.6883 96.2135 42.7953 98.4959C41.2411 99.4072 38.2625 102.653 37.4823 104.285C36.6698 105.986 36.5135 106.363 35.6018 108.818C34.3577 112.168 34.5549 117.476 36.0324 120.416C37.5604 123.457 37.8943 123.939 39.6679 125.661C43.5959 129.474 49.383 131.357 54.3295 130.432C56.1125 130.098 60.2448 128.052 60.2609 127.494C60.282 126.777 55.1855 122.479 54.6841 122.791C54.2864 123.038 51.9063 122.294 50.2824 121.415L49.2313 120.847L51.1583 121.062C52.2182 121.18 53.5583 121.436 54.1365 121.631C54.7146 121.826 59.2081 122.047 64.122 122.123C69.036 122.199 73.1749 122.264 73.3193 122.269C73.6833 122.279 73.6493 124.516 73.2702 125.518C73.0985 125.971 72.4997 126.813 71.9392 127.388C69.4021 129.994 65.9068 133.138 64.3848 134.185C63.4693 134.815 62.7205 135.481 62.7205 135.665C62.7205 135.875 76.8405 136 100.561 136C125.798 136 138.401 135.882 138.401 135.645C138.401 135.449 138.067 135.014 137.66 134.677C135.502 132.893 131.736 128.08 130.574 125.619C128.729 121.716 128.767 121.893 128.795 117.348C128.814 114.265 129.005 112.315 129.434 110.838C129.771 109.678 130.289 107.858 130.585 106.793C131.565 103.274 133.922 96.4954 134.401 95.8194C134.582 95.565 135.035 94.8028 135.408 94.1254C135.782 93.448 136.457 92.4979 136.909 92.0141C137.36 91.5302 138.393 90.2635 139.204 89.199C140.015 88.1345 141.018 86.9863 141.435 86.6475C141.85 86.3086 142.639 85.3194 143.186 84.4489C144.142 82.9301 145.396 82.3428 145.908 83.1747C146.012 83.345 146.928 83.7465 147.943 84.0674C148.958 84.388 150.576 85.0253 151.54 85.4831C152.503 85.9412 154.071 86.6017 155.023 86.9515C158.3 88.1539 163.627 92.1031 163.627 93.3301C163.627 94.4164 161.376 93.548 158.021 91.1689C157.154 90.5538 155.827 89.8391 155.072 89.5808C153.402 89.009 149.359 88.9615 148.815 89.5069C148.599 89.7247 148.205 89.9028 147.941 89.9028C147.677 89.9028 146.467 90.6153 145.251 91.4863C143.811 92.518 142.676 93.0698 141.99 93.0698C140.416 93.0698 139.919 93.8612 140.485 95.4682C140.737 96.1811 141.107 96.9715 141.308 97.2248C141.826 97.8772 143.917 98.7 145.058 98.7C146.553 98.7 146.917 97.9772 146.638 95.5618C146.423 93.7039 146.482 93.3678 147.15 92.65C147.817 91.9332 148.201 91.8455 150.423 91.9018C153.838 91.9884 160.362 93.5135 161.877 94.5797C162.84 95.2571 167.07 99.896 168.199 101.514C170.586 104.931 171.666 108.606 171.678 113.351C171.694 119.716 169.384 124.446 163.968 129.138C162.852 130.106 161.332 131.21 160.593 131.592C159.853 131.973 158.696 132.619 158.021 133.028C156.527 133.932 150.144 135.296 147.406 135.296C146.307 135.296 145.408 135.455 145.408 135.648C145.408 135.879 152.24 136 165.204 136C178.168 136 185 135.879 185 135.648C185 135.419 179.939 135.296 170.518 135.296C162.553 135.296 155.931 135.191 155.803 135.062C155.675 134.933 156.555 134.41 157.759 133.899C162.926 131.707 167.915 127.241 170.053 122.895C170.758 121.461 171.336 120.055 171.336 119.769C171.336 119.484 171.474 119.1 171.643 118.916C171.812 118.732 172.122 117.387 172.331 115.927C172.716 113.236 172.378 109.115 171.66 107.766C171.482 107.43 171.336 106.977 171.336 106.761C171.336 106.105 169.186 101.775 168.215 100.473C167.715 99.8038 166.478 98.3794 165.467 97.3079C163.551 95.2786 163.365 94.8816 164.022 94.2215C164.959 93.2805 163.354 90.9007 160.569 89.1008C159.754 88.5741 158.946 88.1433 158.773 88.1433C158.599 88.1433 158.277 87.9248 158.056 87.6581C157.836 87.391 157.217 87.0845 156.681 86.9768C156.144 86.8688 154.295 86.1281 152.571 85.3304C150.848 84.5326 149.122 83.7539 148.737 83.5998C148.351 83.446 147.28 82.9787 146.356 82.5617C144.741 81.8326 144.685 81.7587 144.896 80.6309C145.329 78.3109 144.504 76.5972 141.432 73.432C139.861 71.814 137.563 69.7629 136.324 68.874C135.086 67.9851 133.809 67.0086 133.486 66.7043C131.571 64.8948 129.388 63.5144 128.441 63.5126C127.531 63.5109 124.048 65.9523 124.244 66.4544C124.33 66.6743 125.926 67.8043 127.791 68.9655C129.656 70.1267 131.9 71.6419 132.777 72.3323C133.654 73.0227 135.16 74.0383 136.123 74.589C140.152 76.8921 141.093 78.2352 139.414 79.2884C138.498 79.8627 137.235 79.4239 134.85 77.7028C133.957 77.0582 132.981 76.5311 132.681 76.5311C132.381 76.5311 132.047 76.3868 131.938 76.2108C131.726 75.8656 126.894 74.9504 126.638 75.2073C126.554 75.2924 127.392 75.5672 128.501 75.8181C132.074 76.6261 133.302 77.1447 134.637 78.4091C135.357 79.091 136.301 79.6995 136.735 79.7614C137.827 79.9173 137.729 80.8086 136.466 82.2147C134.922 83.9327 130.592 89.7965 129.359 91.8382C127.872 94.3021 126.49 98.3474 125.932 101.867C125.424 105.068 125.684 108.919 126.705 113.354C126.979 114.542 127.301 117.01 127.42 118.837L127.637 122.159L126.609 122.894C126.044 123.298 125.036 123.695 124.37 123.776C123.332 123.902 123.393 123.931 124.795 123.98C126.75 124.047 127.539 123.791 127.539 123.089C127.539 122.017 128.456 122.929 129.641 125.181C130.316 126.461 131.341 128.178 131.919 128.996C132.497 129.814 133.264 130.972 133.622 131.57C133.981 132.168 134.814 133.141 135.473 133.731C136.131 134.322 136.561 134.916 136.426 135.051C136.062 135.416 64.8228 135.352 64.8228 134.986C64.8228 134.816 65.335 134.269 65.9615 133.771C67.6807 132.404 73.2317 127.004 73.2317 126.698C73.2317 126.55 73.4601 125.93 73.739 125.321C74.0183 124.711 74.294 123.737 74.3522 123.156L74.458 122.1L77.4361 121.864C82.0964 121.495 84.453 120.964 86.1782 119.896C87.4665 119.098 87.7931 118.69 87.8824 117.769C88.0131 116.422 86.5416 114.342 84.3097 112.718C83.3542 112.023 82.7453 111.221 82.4082 110.212C81.4829 107.444 78.2735 103.059 74.041 98.7788C70.0605 94.7535 68.2645 93.3038 65.4359 91.8332C64.7135 91.4578 64.122 90.9605 64.122 90.7283C64.122 90.4961 63.8463 90.2339 63.5089 90.1452C62.956 90.0002 62.9539 89.9805 63.4882 89.9436C63.814 89.9211 64.1781 90.0611 64.2972 90.2547C64.4163 90.4482 64.9682 90.6065 65.5235 90.6065C66.0788 90.6065 66.6307 90.7649 66.7498 90.9584C67.0844 91.5021 68.5773 91.374 68.8037 90.7825C68.9144 90.4922 69.1519 90.2547 69.3313 90.2547C69.6554 90.2547 78.3898 98.8717 81.1595 101.924C83.8013 104.835 84.035 104.924 89.4384 105.115C94.592 105.296 95.0791 105.175 95.4144 103.626C95.5191 103.143 95.8565 101.717 96.1645 100.459C96.4721 99.2014 96.9658 97.007 97.2608 95.5826C97.8757 92.6165 97.744 92.3023 95.3842 91.0971C94.6663 90.7304 93.4481 90.0439 92.6773 89.5713C90.7747 88.4048 88.0443 87.0877 87.5286 87.0877C86.86 87.0877 87.5482 87.5708 90.3998 89.1043C97.8 93.0835 97.5828 92.9128 97.0453 94.3285C96.8306 94.8943 96.5247 95.9904 96.3656 96.7646C96.2066 97.5387 95.7017 99.5973 95.2434 101.339L94.4102 104.506L84.8755 104.701L82.4699 102.254C81.1466 100.908 77.5962 97.3005 74.5799 94.2373L69.0959 88.668L69.2024 81.1063L71.7535 81.1059C74.4951 81.1056 74.904 80.8294 74.5081 79.2459C74.2901 78.3728 72.8347 77.838 69.4494 77.3872C68.4375 77.2524 67.5255 77.0047 67.4222 76.8365C67.3185 76.6687 66.7274 76.5311 66.1079 76.5311C64.9556 76.5311 64.753 76.2861 63.4896 73.3641C63.2804 72.8802 62.8008 71.7718 62.4234 70.9009C61.3741 68.4774 61.3376 67.5801 62.2826 67.4453C62.7163 67.3837 63.0709 67.4967 63.0709 67.6969C63.0709 67.8972 63.7962 69.2607 64.6826 70.7274C66.3662 73.5119 67.5942 74.418 70.3471 74.9053C71.3803 75.0887 74.7032 76.4269 76.0346 77.1961C76.4144 77.4157 76.5273 77.958 76.4411 79.1533C76.2554 81.7302 76.7918 82.5874 79.2906 83.7064C80.4868 84.2416 82.5988 85.2216 83.9839 85.8839C86.7879 87.2239 87.4035 87.391 86.1526 86.4719C84.9824 85.6122 83.8153 84.9764 83.4068 84.9764C82.6822 84.9764 78.97 83.0621 78.0493 82.2137C77.2539 81.4811 77.0858 81.0299 77.0858 79.6322C77.0858 77.5987 77.4859 77.4928 80.3172 78.7775C81.9973 79.5401 82.9016 79.8877 84.9691 80.5658C86.3184 81.0081 84.9747 80.1675 83.0421 79.3599C77.9543 77.2345 77.7865 77.1356 77.7865 76.2689C77.7865 75.3255 79.2248 72.5502 80.36 71.3034C81.191 70.3906 82.2295 69.885 84.0932 69.4852L85.3195 69.2224L84.233 69.1819C83.0284 69.1369 80.9605 69.7681 80.4069 70.3495C79.4028 71.4044 77.5083 74.3571 77.3142 75.1696C77.0921 76.1007 75.995 76.6901 75.4509 76.1704C75.2901 76.017 74.3704 75.6471 73.4069 75.3487C70.8887 74.5689 69.077 73.8835 68.8002 73.6051C68.6681 73.4725 68.2792 73.3641 67.9355 73.3641C67.3605 73.3641 65.5235 71.3646 65.5235 70.739C65.5235 70.5894 64.9605 69.6971 64.2723 68.7554C63.5842 67.8141 63.1207 66.8823 63.2419 66.6849C63.3635 66.4878 64.4689 66.3263 65.6987 66.3263C67.1026 66.3263 68.0402 66.1627 68.2182 65.8865C68.3741 65.6447 68.6054 63.8631 68.7322 61.9277C68.859 59.9924 69.1288 55.8753 69.3317 52.7787C70.16 40.128 70.4746 36.0095 70.9714 31.3135C71.5271 26.0595 71.6336 21.3572 71.2118 20.7207C71.0702 20.5074 70.0083 20.2302 68.852 20.1049C67.6958 19.9793 65.0155 19.64 62.8957 19.3508C60.776 19.0615 57.3073 18.6699 55.1876 18.4806C53.0678 18.2913 50.151 17.9784 48.7057 17.7859C46.2324 17.4562 29.7265 17.3341 28.209 17.6343ZM48.1619 18.4792C53.2777 18.8546 60.79 19.6742 64.122 20.2199C65.1819 20.3938 66.9162 20.6429 67.9761 20.7738C69.036 20.9047 70.1004 21.1718 70.3411 21.3671C70.8751 21.801 70.9087 24.6639 70.4249 28.5393C70.0994 31.1471 69.8022 35.1238 69.0475 46.9725C68.3303 58.2333 67.9095 64.1042 67.7673 64.8308C67.625 65.5589 67.4208 65.6226 65.2366 65.6226C61.9595 65.6226 61.585 65.1084 62.3562 61.6688C62.5415 60.8436 62.9416 58.5056 63.2461 56.4735C63.5506 54.4413 63.9507 52.1034 64.136 51.2782C64.321 50.4527 64.4724 49.3601 64.4724 48.8498C64.4724 48.34 64.6956 46.7192 64.9685 45.2483C65.2415 43.7774 65.6496 41.3863 65.8756 39.9348C66.102 38.4832 66.4996 36.108 66.7596 34.6565C67.2127 32.1257 68.043 25.2336 68.1162 23.3961L68.1513 22.5164L58.1657 22.4161C40.8357 22.2419 28.1284 23.1737 25.2309 24.8307C23.0116 26.0996 22.5183 27.0307 21.3309 32.1933C20.7356 34.7825 20.6834 62.2518 21.2727 62.8437C21.5117 63.0837 23.4997 63.2836 26.3391 63.3529L31.012 63.4669L27.1579 63.1386C21.7531 62.6783 21.8827 62.7691 21.6084 59.233C20.8582 49.5512 21.7706 31.297 23.1623 28.1466C23.8441 26.6032 25.515 25.196 26.9526 24.9549C27.6435 24.8392 28.682 24.602 29.2601 24.4282C29.8382 24.2543 32.5974 23.8757 35.3916 23.5865C41.4229 22.9626 66.7526 22.7303 67.3139 23.294C67.7074 23.6892 67.1717 28.2912 65.7047 37.1197C65.3991 38.9583 65.013 41.3335 64.8462 42.398C64.6795 43.4625 64.2811 45.9169 63.9605 47.8522C62.6088 56.0136 62.182 58.8565 61.7409 62.6315L61.4942 64.7428L57.1146 64.7249C54.7058 64.715 49.9758 64.524 46.6035 64.3002C40.5046 63.8955 29.7387 63.4475 32.4135 63.7097C33.1843 63.7853 35.0763 64.0074 36.6179 64.203C38.1595 64.3983 41.693 64.6334 44.4701 64.7249C47.2597 64.8167 49.6822 65.055 49.8833 65.2569C50.0834 65.4579 51.3587 65.6317 52.7174 65.643C54.0758 65.6539 55.8182 65.8073 56.5891 65.9836C57.4969 66.1912 55.5842 66.2303 51.1583 66.0951C47.4006 65.9801 40.4426 65.8344 35.6957 65.7718C30.9489 65.7088 25.4533 65.4909 23.4832 65.2879C21.5131 65.0849 18.9561 64.9188 17.8009 64.9188H15.7008L15.8872 54.6261C16.1363 40.8613 17.0273 31.8815 18.7416 25.8593C18.9893 24.9884 19.2917 23.8437 19.4136 23.3151C19.7034 22.0561 21.3424 20.3998 22.978 19.7136C26.5493 18.2149 37.3502 17.6857 48.1619 18.4792ZM77.7865 23.028C78.461 23.2462 80.0376 23.9415 81.2902 24.5735C83.0561 25.4645 83.5907 25.9159 83.6699 26.5831C83.8441 28.0445 82.9576 28.8489 81.1613 28.8602C79.3435 28.8711 78.1547 29.755 77.0518 31.9153C76.09 33.7989 76.0995 39.4172 77.0679 41.2684C77.9 42.86 80.3071 45.4394 82.0589 46.6168C83.5186 47.5982 83.8745 48.4167 83.2278 49.3048C82.8171 49.8689 82.6798 49.8474 81.2254 48.9913C80.3666 48.486 78.7276 47.152 77.5836 46.027C75.9681 44.4382 75.3959 43.5884 75.0221 42.2221C74.7575 41.2544 74.3437 39.9876 74.1027 39.407C73.3645 37.6296 72.8764 32.9716 72.8788 27.7243C72.882 21.5469 72.9636 21.4688 77.7865 23.028ZM83.5743 31.4015C83.919 32.321 84.6499 33.7349 85.1982 34.5439C86.0065 35.7361 86.1954 36.3951 86.1954 38.0219C86.1954 40.015 85.6436 42.6197 85.0851 43.2601C84.9249 43.4442 84.7904 43.9192 84.7862 44.3158C84.782 44.7127 84.4863 45.4186 84.1293 45.8848L83.4804 46.7325L82.2281 45.9552C80.8074 45.0734 78.5373 42.4649 77.612 40.6512C76.72 38.9031 76.7308 33.4358 77.6292 31.9902C78.9189 29.9144 79.2037 29.7301 81.1217 29.7301H82.9468L83.5743 31.4015ZM125.408 47.2456C126.098 47.7534 128.161 49.688 129.992 51.5457C132.748 54.3425 133.46 55.2961 134.134 57.0977C134.972 59.3354 134.943 59.6099 133.733 60.96C133.022 61.7525 131.267 62.0484 130.892 61.439C130.786 61.2669 130.284 61.0213 129.778 60.8935C129.271 60.7658 128.631 60.435 128.356 60.1588C128.08 59.8822 127.526 59.4241 127.123 59.1408C126.631 58.7949 126.296 58.0285 126.104 56.8116C125.935 55.7352 125.437 54.4945 124.878 53.759C123.83 52.3793 120.785 50.8433 119.097 50.8433C117.838 50.8433 116.677 50.2873 116.68 49.6873C116.685 49.0353 119.721 46.4753 120.802 46.2118C122.297 45.8479 124.038 46.2388 125.408 47.2456ZM85.7122 49.6039C85.9967 49.8897 86.5549 50.3524 86.9518 50.6318C88.1256 51.4573 87.5874 51.8975 86.0553 51.3651C84.6857 50.889 84.1086 50.3457 84.0984 49.5237C84.0911 48.9206 85.0809 48.9698 85.7122 49.6039ZM86.6782 52.0795C87.3761 52.3726 87.9623 52.7287 87.9805 52.8712C87.9991 53.0141 88.0422 54.239 88.0762 55.5938C88.1873 59.9822 89.498 61.5167 94.5451 63.166C95.7651 63.5647 97.9724 64.4483 99.4503 65.1296C100.928 65.8108 102.725 66.636 103.442 66.9632C104.16 67.2901 104.751 67.7589 104.756 68.0048C104.763 68.355 103.13 68.431 97.1771 68.3567L89.5894 68.2617L88.8298 66.1504C88.4122 64.9892 87.825 63.4848 87.5247 62.8075C85.3699 57.9423 83.5575 52.2023 84.027 51.7308C84.3553 51.401 85.3843 51.5365 86.6782 52.0795ZM91.9765 53.9856C95.3355 55.2172 102.266 57.1931 103.118 57.1618C103.793 57.1371 100.808 56.1329 100.035 56.1248C99.6496 56.1205 98.8827 55.8806 98.3308 55.5917C97.7787 55.3024 96.9602 55.0659 96.5121 55.0659C96.0636 55.0659 95.6078 54.9213 95.4991 54.7447C95.3902 54.568 94.6723 54.3168 93.9036 54.1862C93.1349 54.0557 92.4169 53.8044 92.308 53.6278C92.1994 53.4511 91.6861 53.3146 91.1675 53.3248C90.4191 53.3392 90.5859 53.4758 91.9765 53.9856ZM123.965 57.5995C124.629 58.2664 124.463 58.7143 123.304 59.3766C122.102 60.0634 120.882 60.1877 120.882 59.6229C120.882 59.4198 121.123 58.7864 121.417 58.2153C121.985 57.1115 123.19 56.8204 123.965 57.5995ZM131.218 65.7893C132.567 66.8489 134.459 68.2571 135.423 68.9187C137.948 70.6531 142.83 75.8241 143.645 77.6279C144.912 80.4328 144.321 81.8815 142.21 81.1425C140.441 80.5236 140.219 80.69 141.734 81.4979C142.502 81.9075 143.197 82.3034 143.277 82.3784C143.609 82.6856 142.274 84.6484 139.458 87.9955C135.008 93.2848 134.628 93.8101 134.003 95.533C133.687 96.4039 133.065 97.9082 132.621 98.8759C131.245 101.872 129.291 107.871 129.291 109.101C129.291 109.744 129.133 110.369 128.941 110.488C128.748 110.608 128.575 111.369 128.555 112.18C128.536 112.991 128.401 114.051 128.255 114.535L127.99 115.415L127.729 114.359C127.586 113.778 127.335 112.749 127.171 112.072C126.622 109.802 126.422 103.183 126.83 100.811C127.047 99.5533 127.312 98.0078 127.42 97.3772C127.528 96.7463 127.757 96.1431 127.928 96.0369C128.1 95.9303 128.24 95.6065 128.24 95.3169C128.24 94.8654 131.523 89.3493 132.091 88.8471C132.2 88.7503 132.902 87.8002 133.651 86.7358C135.578 83.9967 138.756 80.7537 139.512 80.7537C139.937 80.7537 140.153 80.4951 140.153 79.9845C140.153 79.5615 140.475 78.8715 140.868 78.4506L141.583 77.6856L140.379 76.6686C139.716 76.1091 138.236 75.1242 137.09 74.4803C135.944 73.8363 134.627 72.9583 134.163 72.529C133.06 71.5079 129.223 69.1414 128.671 69.1414C128.434 69.1414 128.24 69.0225 128.239 68.8775C128.239 68.7325 127.755 68.2969 127.164 67.9098C125.338 66.7127 125.299 66.2317 126.922 64.979C127.717 64.3653 128.457 63.8631 128.566 63.8631C128.676 63.8631 129.869 64.7302 131.218 65.7893ZM121.232 68.9778C121.232 69.4595 120.052 70.9009 119.658 70.9009C119 70.9009 118.322 69.9307 118.555 69.3219C118.743 68.8279 121.232 68.508 121.232 68.9778ZM116.24 71.9368C117.098 72.6561 117.311 74.0678 116.562 74.0678C116.305 74.0678 115.884 73.672 115.627 73.1881C115.369 72.7043 115.027 72.3084 114.867 72.3084C114.706 72.3084 114.575 72.0709 114.575 71.7806C114.575 71.068 115.282 71.1342 116.24 71.9368ZM119.765 74.4679C119.482 74.6485 119.925 74.7628 120.921 74.7663C121.809 74.7692 123.307 74.8501 124.249 74.9462C125.635 75.0873 125.761 75.0602 124.911 74.8036C123.349 74.3328 120.291 74.1333 119.765 74.4679ZM117.226 76.2671C117.025 77.6736 116.705 79.5256 115.421 86.7358C114.573 91.4944 113.747 95.61 112.985 98.8759C112.669 100.231 112.299 102.052 112.162 102.923C112.025 103.794 111.616 104.959 111.253 105.511C110.658 106.416 110.549 106.458 110.166 105.932C109.712 105.308 109.815 101.963 110.356 99.7556C110.523 99.0782 110.922 96.9405 111.244 95.0051C111.567 93.0698 111.962 90.8529 112.123 90.0787C112.284 89.3046 112.679 87.0877 113.001 85.1523C113.324 83.2169 113.716 81.0792 113.874 80.4018C114.032 79.7244 114.354 78.2993 114.589 77.2348C115.137 74.7551 115.125 74.7716 116.379 74.7716C117.427 74.7716 117.437 74.7896 117.226 76.2671ZM41.6107 75.3779C42.2368 75.456 43.262 75.456 43.8881 75.3779C44.5142 75.3002 44.002 75.2361 42.7494 75.2361C41.4968 75.2361 40.9846 75.3002 41.6107 75.3779ZM107.208 76.075C105.986 76.9206 105.54 77.5149 104.607 79.5362C104.156 80.5116 103.574 81.487 103.313 81.7041C102.662 82.2443 98.8045 83.2169 97.312 83.2169C95.8642 83.2169 91.1836 82.2615 90.3172 81.789C89.9826 81.6067 89.2731 81.4687 88.7405 81.4821C87.8607 81.5046 87.9003 81.5546 89.1735 82.0282C89.9444 82.315 91.8364 82.7936 93.378 83.0913C95.9455 83.5878 97.2072 83.5945 102.137 83.1381L103.188 83.041L103.077 84.8004C103.016 85.7681 102.819 86.7105 102.639 86.8941C102.46 87.0782 102.312 87.6078 102.312 88.0715C102.312 88.5353 102.093 89.7307 101.826 90.7283C101.559 91.7259 101.173 93.4128 100.969 94.4773C100.766 95.5418 100.354 97.6443 100.054 99.1497C99.4173 102.35 99.3536 104.737 99.8907 105.276C100.165 105.552 100.006 106.063 99.3185 107.106C98.7944 107.902 98.2261 108.553 98.0562 108.553C97.5702 108.553 96.359 110.755 96.3576 111.641C96.3551 113.023 97.6795 116.294 98.5172 116.975C98.9591 117.334 100.191 117.818 101.254 118.05C102.318 118.282 103.819 118.677 104.59 118.926C105.361 119.175 106.937 119.661 108.094 120.005C109.25 120.349 110.432 120.744 110.721 120.882C111.677 121.34 113.738 121.925 114.4 121.925C114.758 121.925 115.535 122.072 116.127 122.252C118.132 122.864 120.001 123.3 121.408 123.485C123.372 123.744 121.992 123.171 119.305 122.611C117.178 122.168 114.665 121.422 108.619 119.441C106.788 118.841 103.886 117.977 102.169 117.52C100.452 117.064 98.7678 116.403 98.4265 116.052C97.7209 115.327 96.8257 111.425 97.1624 110.544C97.4952 109.672 98.3449 109.838 99.0551 110.913C100.2 112.646 103.382 115.634 104.647 116.165C106.143 116.793 106.561 116.613 105.202 115.926C104.673 115.658 103.38 114.592 102.331 113.555C100.226 111.478 100.297 111.031 102.737 111.021C103.453 111.018 104.878 110.7 105.905 110.314C109.207 109.074 109.355 109.104 116.152 112.42C118.465 113.549 120.633 114.56 120.97 114.668C121.307 114.776 121.583 115.18 121.583 115.565C121.583 116.077 121.229 116.362 120.269 116.621C119.547 116.817 118.064 117.219 116.974 117.515C114.477 118.194 112.359 118.199 110.164 117.53C108.147 116.915 107.444 116.863 107.743 117.35C107.862 117.544 108.414 117.702 108.97 117.702C109.525 117.702 110.077 117.86 110.196 118.054C110.5 118.548 116.181 118.464 118.079 117.937C120.565 117.247 122.696 115.998 122.566 115.308C122.448 114.681 121.521 114.164 115.802 111.54C113.875 110.656 111.553 109.554 110.642 109.09L108.987 108.247L107.371 109.11C105.358 110.185 101.135 110.977 100.28 110.44C99.4433 109.914 99.3161 107.943 100.065 107.112C100.838 106.254 101.817 106.263 103.539 107.145C104.963 107.874 106.225 108.107 105.623 107.53C105.107 107.034 102.977 105.812 101.524 105.179C100.256 104.625 100.21 104.544 100.21 102.837C100.21 101.864 100.365 100.496 100.553 99.7964C100.742 99.0965 101.213 96.8613 101.599 94.8292C104.002 82.2059 104.069 82.0121 106.517 80.7505C108.648 79.6519 110.089 77.58 109.756 76.0912C109.58 75.3019 108.336 75.2938 107.208 76.075ZM109.243 76.8224C109.426 77.3805 105.931 80.8667 105.474 80.5827C105.063 80.3279 105.74 78.7275 106.867 77.2866C107.759 76.1468 108.945 75.9149 109.243 76.8224ZM32.5886 79.5154C32.5886 79.8018 33.0221 80.1347 33.5522 80.2544C36.209 80.8554 37.5387 81.2263 39.9464 82.0377C41.3917 82.5247 42.8895 83.055 43.275 83.2162C43.6604 83.3774 44.8429 83.7835 45.9027 84.1192C46.9626 84.4545 48.8546 85.0897 50.1072 85.5306C52.7662 86.4659 55.0001 86.9571 54.4868 86.4933C54.2941 86.3192 53.1905 85.8909 52.0342 85.5415C50.878 85.1921 49.6584 84.7638 49.3238 84.5893C48.9892 84.4151 48.54 84.2726 48.3256 84.2726C48.1111 84.2726 47.4388 84.0495 46.8316 83.7768C46.2244 83.5041 45.3334 83.2004 44.8516 83.1019C43.5878 82.8429 41.5077 82.0272 40.9506 81.5722C40.6875 81.3572 40.1567 81.0908 39.7712 80.98C39.3858 80.8691 40.3318 80.8431 41.8735 80.9219L44.6764 81.0658L42.9246 80.5648C41.9611 80.2889 40.2204 80.0605 39.0565 80.0566C37.8926 80.0531 36.0324 79.8124 34.9225 79.5221C32.4657 78.8796 32.5886 78.8799 32.5886 79.5154ZM153.739 90.0822C155.943 90.6037 157.671 91.4708 157.671 92.0546C157.671 92.4842 155.661 92.4487 155.394 92.0141C155.275 91.8206 154.64 91.6622 153.983 91.6622C153.327 91.6622 152.272 91.4363 151.639 91.1601C151.006 90.8838 150.173 90.5421 149.788 90.401C149.103 90.1501 149.375 90.0115 151.364 89.5977C151.461 89.5776 152.529 89.7958 153.739 90.0822ZM146.137 95.0051C145.946 97.9839 145.885 98.1792 145.117 98.2882C144.105 98.4322 141.894 97.0035 141.245 95.786C140.616 94.6061 140.932 93.8436 142.152 93.5958C142.69 93.4864 143.84 93.0377 144.707 92.5993C145.575 92.1605 146.297 91.8096 146.312 91.8198C146.328 91.8301 146.249 93.2633 146.137 95.0051ZM34.8026 96.4137C33.007 98.253 31.5375 99.9576 31.5375 100.202C31.5375 100.446 31.2222 101.237 30.8368 101.959C30.4514 102.681 30.136 103.51 30.136 103.801C30.136 104.092 30.0047 104.33 29.8442 104.33C29.6837 104.33 29.271 105.558 28.9273 107.057C28.5832 108.557 28.1624 110.148 27.9925 110.593C27.5591 111.726 27.6071 117.413 28.0668 119.393C28.8306 122.684 29.6886 125.297 30.5603 126.987C31.7071 129.211 32.4604 130.382 33.7105 131.886C34.4841 132.816 35.0101 133.685 34.879 133.817C34.7476 133.949 27.3597 134.02 18.461 133.976C9.56226 133.932 1.33555 134.032 0.17933 134.198C-1.16364 134.391 5.07927 134.517 17.4642 134.546C28.6263 134.573 36.8019 134.46 36.7346 134.28C36.6705 134.108 35.7903 133.07 34.7785 131.973C33.7669 130.877 32.939 129.859 32.939 129.713C32.939 129.566 32.6475 129.133 32.2915 128.749C31.4405 127.832 29.4745 122.703 28.8659 119.813C28.0678 116.023 28.394 109.171 29.4731 107.062C29.6448 106.726 29.7857 106.275 29.7857 106.06C29.7857 105.844 30.0036 105.169 30.2702 104.559C30.5365 103.949 30.9591 102.896 31.2092 102.219C31.9303 100.266 33.3647 98.3664 36.1926 95.6209C37.6382 94.2176 38.6515 93.0698 38.4444 93.0698C38.2373 93.0698 36.5986 94.5744 34.8026 96.4137ZM59.9176 96.0467C65.7754 97.5317 68.4036 99.2675 71.6585 103.802C72.2145 104.576 72.7629 105.289 72.8774 105.386C72.992 105.483 73.2926 106.207 73.5453 106.997C73.9979 108.41 74.369 108.713 77.0858 109.889C77.5675 110.097 78.3163 110.368 78.75 110.49C79.1838 110.612 79.5383 110.859 79.5383 111.04C79.5383 111.621 76.2946 111.366 73.2495 110.547C70.462 109.796 70.2721 109.684 69.9995 108.628C69.7854 107.798 69.4617 107.453 68.7557 107.304C68.2305 107.193 67.5273 106.954 67.1927 106.772C66.8581 106.59 66.3273 106.441 66.0133 106.441C65.3939 106.441 62.2209 105.473 61.2364 104.984C60.9018 104.818 60.2266 104.682 59.7357 104.682C59.2452 104.682 58.267 104.44 57.5617 104.144L56.279 103.606L57.6605 102.473C60.844 99.8615 61.5286 99.0832 60.9687 98.7095C60.6796 98.5166 59.9701 98.378 59.392 98.4012C58.5718 98.4346 58.514 98.4776 59.1292 98.5965C60.4067 98.8435 60.0567 99.5195 57.6262 101.5C56.3662 102.527 55.3887 103.529 55.4542 103.726C55.5197 103.924 56.6693 104.392 58.0084 104.766C59.3475 105.141 60.7168 105.592 61.0514 105.769C61.386 105.945 61.9084 106.09 62.2122 106.09C62.7692 106.09 65.8049 106.963 67.1002 107.497C67.4856 107.655 68.0945 107.881 68.4537 107.997C68.9691 108.165 69.0202 108.313 68.6982 108.703C68.3825 109.085 68.0357 109.117 67.1695 108.842C66.5532 108.647 65.4972 108.355 64.8228 108.193C62.0082 107.517 60.4235 107.03 60.1103 106.745C59.9274 106.578 59.2175 106.439 58.5336 106.436C57.8493 106.433 56.6591 106.203 55.8883 105.924C55.1175 105.645 53.7472 105.41 52.8432 105.401C51.9393 105.393 51.1022 105.227 50.9831 105.034C50.8573 104.829 51.2035 104.682 51.8096 104.682C53.8751 104.682 53.9613 104.538 53.9613 101.077V97.8994L55.9759 98.1204C57.541 98.2925 57.8437 98.2541 57.3322 97.9501C56.9699 97.7347 55.8813 97.538 54.9132 97.5134L53.1526 97.4683L53.0853 104.154L50.1471 104.472C46.9745 104.814 46.3757 104.694 42.6793 102.973C41.5809 102.461 40.6745 101.855 40.6647 101.625C40.6552 101.395 41.2386 100.631 41.9611 99.9263C45.4711 96.5035 54.2433 94.6082 59.9176 96.0467ZM44.3261 104.241C45.675 104.803 47.0688 105.371 47.4233 105.502C47.9895 105.711 47.8722 105.959 46.4598 107.536C45.5751 108.524 44.8516 109.553 44.8516 109.822C44.8516 110.092 44.7066 110.312 44.5289 110.312C44.3516 110.312 44.1025 110.787 43.9757 111.368C43.7063 112.599 43.2557 112.668 41.4464 111.755C40.7176 111.387 39.5305 110.814 38.8077 110.483C37.9521 110.09 37.4938 109.644 37.4938 109.202C37.4938 108.475 38.4738 106.396 39.8487 104.208C40.7968 102.698 40.623 102.697 44.3261 104.241ZM38.8953 104.33C38.8953 104.524 38.7282 104.682 38.5243 104.682C38.3204 104.682 38.2506 104.524 38.3698 104.33C38.4889 104.137 38.6557 103.978 38.7408 103.978C38.8259 103.978 38.8953 104.137 38.8953 104.33ZM37.9143 106.16C37.5874 106.488 37.4938 106.395 37.4938 105.738C37.4938 105.081 37.5874 104.987 37.9143 105.315C38.2412 105.644 38.2412 105.832 37.9143 106.16ZM55.9801 106.623C58.5886 107.17 60.7346 107.729 64.122 108.746C65.1819 109.063 66.4776 109.405 67.0014 109.504C68.2921 109.749 68.5602 110.18 68.755 112.321C68.8762 113.653 69.1989 114.499 69.9378 115.419C71.5404 117.415 73.2317 120.25 73.2317 120.941C73.2317 121.484 72.8767 121.582 70.6915 121.638C67.3556 121.725 56.3858 121.521 55.7131 121.36C55.4241 121.291 54.3992 121.063 53.4357 120.855C52.4722 120.646 51.2897 120.305 50.8079 120.095C48.2891 119 47.3988 118.496 46.4349 117.616C45.8533 117.084 45.271 116.649 45.1417 116.648C45.0121 116.647 44.7234 116.091 44.5002 115.411C43.7809 113.223 44.9389 109.797 47.1164 107.67C48.8487 105.978 51.4403 105.672 55.9801 106.623ZM38.7299 111.069C39.8806 111.679 41.2512 112.4 41.775 112.673C43.5882 113.615 44.0451 117.779 42.5742 119.956C42.0925 120.669 41.6983 121.403 41.6983 121.588C41.6983 121.773 41.5785 121.925 41.4324 121.925C41.2859 121.925 40.9727 122.236 40.7365 122.616C40.3721 123.202 40.4317 123.442 41.1303 124.199C42.1906 125.348 42.6856 125.327 42.9432 124.124C43.2399 122.739 44.1877 120.573 44.6743 120.167C45.0829 119.826 47.6062 120.751 52.1246 122.896C54.0177 123.795 57.465 127.316 57.465 128.351C57.465 129.142 53.9861 130.37 51.7441 130.37C49.2236 130.37 44.1358 128.457 41.8265 126.641C39.8 125.047 37.3954 122.212 36.7819 120.693C36.5475 120.112 36.1838 119.268 35.9743 118.817C35.5479 117.899 35.4273 111.533 35.8187 110.576C36.1537 109.756 36.2984 109.781 38.7299 111.069ZM72.0758 110.858C75.5774 111.799 79.668 112.431 80.8354 112.211C82.1059 111.972 83.2765 112.639 85.7574 115.015C86.7266 115.943 87.2465 116.745 87.2465 117.313C87.2465 118.316 85.9929 119.813 85.1534 119.813C84.8402 119.813 84.4337 119.957 84.2508 120.132C83.8227 120.542 79.6729 121.281 76.7126 121.475C74.1328 121.644 73.9741 121.541 73.2488 119.228C72.9962 118.423 72.2611 117.156 71.6158 116.413C70.1446 114.721 69.3776 113.144 69.3776 111.813C69.3776 110.919 69.6067 110.312 69.9445 110.312C69.9991 110.312 70.9585 110.558 72.0758 110.858ZM45.5524 118.271C45.5524 118.538 45.237 118.758 44.8516 118.758C44.3958 118.758 44.1509 118.523 44.1509 118.087C44.1509 117.589 44.332 117.463 44.8516 117.6C45.237 117.701 45.5524 118.003 45.5524 118.271ZM46.4283 119.109C46.5474 119.303 46.4777 119.461 46.2738 119.461C46.0699 119.461 45.9027 119.303 45.9027 119.109C45.9027 118.916 45.9721 118.758 46.0572 118.758C46.1424 118.758 46.3092 118.916 46.4283 119.109ZM42.7613 122.773C42.3727 123.8 41.4485 123.851 41.6307 122.836C41.7729 122.043 42.8927 120.903 43.0262 121.414C43.0823 121.629 42.9631 122.24 42.7613 122.773ZM58.9488 127.001C59.3244 127.552 59.2729 127.907 58.8174 127.907C58.4148 127.907 57.4969 126.891 57.4762 126.422C57.4608 126.075 58.631 126.535 58.9488 127.001Z" fill="black"/>
</svg>
